<svg width="68" height="68" viewBox="0 0 68 68" fill="none" xmlns="http://www.w3.org/2000/svg">
<g filter="url(#filter0_d_22_629)">
<circle cx="18" cy="18" r="18" transform="matrix(-1 0 0 1 52 16)" fill="#FEFEFE"/>
</g>
<path d="M24.6464 34.3536C24.4512 34.1583 24.4512 33.8417 24.6464 33.6464L27.8284 30.4645C28.0237 30.2692 28.3403 30.2692 28.5355 30.4645C28.7308 30.6597 28.7308 30.9763 28.5355 31.1716L25.7071 34L28.5355 36.8284C28.7308 37.0237 28.7308 37.3403 28.5355 37.5355C28.3403 37.7308 28.0237 37.7308 27.8284 37.5355L24.6464 34.3536ZM43 34.5L25 34.5L25 33.5L43 33.5L43 34.5Z" fill="#181C36"/>
<defs>
<filter id="filter0_d_22_629" x="0" y="0" width="68" height="68" filterUnits="userSpaceOnUse" color-interpolation-filters="sRGB">
<feFlood flood-opacity="0" result="BackgroundImageFix"/>
<feColorMatrix in="SourceAlpha" type="matrix" values="0 0 0 0 0 0 0 0 0 0 0 0 0 0 0 0 0 0 127 0" result="hardAlpha"/>
<feMorphology radius="2" operator="dilate" in="SourceAlpha" result="effect1_dropShadow_22_629"/>
<feOffset/>
<feGaussianBlur stdDeviation="7"/>
<feComposite in2="hardAlpha" operator="out"/>
<feColorMatrix type="matrix" values="0 0 0 0 0 0 0 0 0 0 0 0 0 0 0 0 0 0 0.1 0"/>
<feBlend mode="normal" in2="BackgroundImageFix" result="effect1_dropShadow_22_629"/>
<feBlend mode="normal" in="SourceGraphic" in2="effect1_dropShadow_22_629" result="shape"/>
</filter>
</defs>
</svg>
