<svg width="30" height="30" viewBox="0 0 30 30" fill="none" xmlns="http://www.w3.org/2000/svg">
<path d="M24.3838 18.1125C25.2013 16.5773 25.6276 14.8643 25.625 13.125C25.625 7.25688 20.8681 2.5 15 2.5C9.13189 2.5 4.37502 7.25688 4.37502 13.125C4.37071 15.6314 5.2567 18.0579 6.87502 19.9719L6.88752 19.9875C6.89189 19.9912 6.89564 19.9963 6.89877 20H6.87502L13.18 26.6937C13.4137 26.9418 13.6957 27.1395 14.0087 27.2747C14.3216 27.4098 14.6588 27.4795 14.9997 27.4795C15.3406 27.4795 15.6778 27.4098 15.9907 27.2747C16.3037 27.1395 16.5857 26.9418 16.8194 26.6937L23.125 20H23.1013L23.1113 19.9881L23.1125 19.9869C23.1575 19.9331 23.2025 19.8794 23.2469 19.8244C23.6804 19.2916 24.0613 18.7181 24.3844 18.1119L24.3838 18.1125ZM15.0025 17.1875C14.008 17.1875 13.0541 16.7924 12.3509 16.0892C11.6476 15.3859 11.2525 14.4321 11.2525 13.4375C11.2525 12.4429 11.6476 11.4891 12.3509 10.7858C13.0541 10.0826 14.008 9.6875 15.0025 9.6875C15.9971 9.6875 16.9509 10.0826 17.6542 10.7858C18.3574 11.4891 18.7525 12.4429 18.7525 13.4375C18.7525 14.4321 18.3574 15.3859 17.6542 16.0892C16.9509 16.7924 15.9971 17.1875 15.0025 17.1875Z" fill="#95BF46"/>
</svg>
