<svg width="24" height="24" viewBox="0 0 24 24" fill="none" xmlns="http://www.w3.org/2000/svg">
<path d="M16.5372 15L13.3872 18.125C10.2622 16.3375 7.67475 13.75 5.88725 10.625L9.01225 7.475C9.29975 7.175 9.42475 6.7625 9.34975 6.35L8.41225 1.75C8.29975 1.175 7.78725 0.75 7.18725 0.75H1.99975C1.29975 0.75 0.712248 1.3375 0.749748 2.0375C0.962248 5.65 2.06225 9.0375 3.78725 12C5.76225 15.4125 8.59975 18.2375 11.9997 20.2125C14.9622 21.925 18.3497 23.0375 21.9622 23.25C22.6622 23.2875 23.2497 22.7 23.2497 22V16.8125C23.2497 16.2125 22.8248 15.7 22.2498 15.5875L17.6622 14.675C17.4625 14.6315 17.255 14.6385 17.0586 14.6952C16.8622 14.7519 16.683 14.8567 16.5372 15Z" fill="#95BF46"/>
</svg>
