<svg width="27" height="18" viewBox="0 0 27 18" fill="none" xmlns="http://www.w3.org/2000/svg">
<path d="M26.5004 15.75V2.25C26.5004 1.005 25.4954 0 24.2504 0H3.23535C1.99035 0 0.985352 1.005 0.985352 2.25V15.75C0.985352 16.995 1.99035 18 3.23535 18H24.2504C25.4954 18 26.5004 16.995 26.5004 15.75ZM24.5354 2.085C25.0304 2.58 24.7604 3.09 24.4904 3.345L18.4004 8.925L24.2504 15.015C24.4304 15.225 24.5504 15.555 24.3404 15.78C24.1454 16.02 23.6954 16.005 23.5004 15.855L16.9454 10.26L13.7354 13.185L10.5404 10.26L3.98535 15.855C3.79035 16.005 3.34035 16.02 3.14535 15.78C2.93535 15.555 3.05535 15.225 3.23535 15.015L9.08535 8.925L2.99535 3.345C2.72535 3.09 2.45535 2.58 2.95035 2.085C3.44535 1.59 3.95535 1.83 4.37535 2.19L13.7354 9.75L23.1104 2.19C23.5304 1.83 24.0404 1.59 24.5354 2.085Z" fill="#95BF46"/>
</svg>
