<svg width="202" height="72" viewBox="0 0 202 72" fill="none" xmlns="http://www.w3.org/2000/svg">
<path fill-rule="evenodd" clip-rule="evenodd" d="M159.998 21.7169C154.495 31.2635 148.991 40.8098 143.457 50.3367C146.434 50.3937 149.411 50.3857 152.388 50.3777C154.372 50.3724 156.357 50.3671 158.341 50.381C160.46 46.7209 162.573 43.0569 164.686 39.3931C167.295 34.8684 169.904 30.344 172.524 25.8273C175.511 30.9792 178.484 36.1373 181.458 41.2962C183.202 44.3225 184.947 47.349 186.695 50.3747C188.114 50.3747 189.533 50.3757 190.952 50.3767C194.5 50.3793 198.049 50.3819 201.6 50.3683C191.888 33.5958 182.197 16.8042 172.536 0C168.348 7.2335 164.173 14.4753 159.998 21.7169ZM28.3983 0.0634741C22.9859 0.221885 17.5272 1.38145 12.7111 3.98573C8.10192 6.41575 4.15385 10.3127 1.9852 15.1759C-0.634488 21.0529 -0.631397 28.0357 1.81838 33.9729C3.90362 39.0421 7.78681 43.2209 12.4145 45.9456C17.4284 48.9269 23.2454 50.3209 29.0162 50.3811C33.8209 50.3739 38.6266 50.3749 43.4322 50.376C47.0371 50.3767 50.6418 50.3775 54.2461 50.3748C56.3715 47.5616 58.4929 44.7471 60.6147 41.9321C61.7404 40.4387 62.8662 38.9452 63.9927 37.4516C57.057 37.4402 50.1212 37.4425 43.1855 37.4448C38.5613 37.4463 33.937 37.4478 29.3127 37.4453C24.8673 37.3724 20.116 35.7851 17.3511 32.0276C14.2773 27.9596 14.5739 21.7087 17.9783 17.9386C20.7957 14.6499 25.1608 13.2338 29.3282 13.1546C36.0231 13.1498 42.7198 13.1504 49.4169 13.151C51.6475 13.1512 53.8782 13.1514 56.1089 13.1514C58.2638 15.5699 60.4167 17.9908 62.5698 20.4118C66.5005 24.8318 70.4316 29.2521 74.3756 33.6593C74.3858 35.9604 74.3824 38.2616 74.3789 40.5628C74.3739 43.8377 74.369 47.1126 74.4035 50.3875C77.4581 50.3723 80.5138 50.3742 83.5699 50.3761C85.6075 50.3773 87.6452 50.3786 89.6829 50.3748C89.6863 48.3156 89.6842 46.2564 89.6821 44.1973C89.6786 40.7124 89.675 37.228 89.6983 33.7448C93.2398 29.6861 96.7594 25.6073 100.279 21.5284C102.692 18.7329 105.104 15.9374 107.523 13.1482C110.199 13.1524 112.875 13.1517 115.551 13.1509C118.897 13.1499 122.242 13.1489 125.589 13.1577C125.595 20.6023 125.594 28.0458 125.593 35.4895C125.592 40.451 125.591 45.4127 125.592 50.3748C126.631 50.3808 127.67 50.3781 128.709 50.3755C130.404 50.3711 132.099 50.3667 133.794 50.4001C135.602 47.3694 137.338 44.2912 139.071 41.2173L139.247 40.905C139.402 40.0766 139.36 39.2267 139.319 38.3753C139.29 37.7647 139.26 37.1534 139.302 36.5487C139.151 28.7517 139.009 20.9515 138.994 13.1514C140.355 13.1514 141.717 13.1512 143.078 13.151C147.166 13.1504 151.254 13.1498 155.342 13.1546C157.863 8.79192 160.384 4.42611 162.895 0.0603028C157.633 0.0603028 152.371 0.0605004 147.108 0.060698C131.31 0.0612913 115.511 0.0618846 99.7137 0.0571315C98.4567 1.58502 97.2225 3.13207 95.9883 4.67915C95.0932 5.80114 94.1981 6.92315 93.2942 8.03788C92.0734 9.59335 90.83 11.1305 89.5867 12.6675C87.1428 15.6888 84.699 18.71 82.4262 21.8703C80.998 20.0488 79.478 18.3075 77.9579 16.5661C77.0614 15.539 76.1648 14.5119 75.287 13.4682C73.9648 11.8888 72.6396 10.312 71.3145 8.73522C69.0698 6.0642 66.8251 3.39326 64.5951 0.709793C64.5284 0.645247 64.4646 0.568027 64.3998 0.489525C64.1973 0.244357 63.9845 -0.0133198 63.6405 0.0634741C51.8951 0.0603059 40.1467 0.0571376 28.3983 0.0634741Z" fill="#95BF46"/>
<path fill-rule="evenodd" clip-rule="evenodd" d="M98.2279 68.1409C98.1476 65.7053 95.0946 64.1046 92.7821 65.0997C91.294 65.5777 90.3124 67.0409 90.3892 68.4944C90.3403 70.3407 92.0765 71.9611 94.0326 71.9807C96.3032 72.2131 98.4794 70.2883 98.2279 68.1409ZM92.6633 69.8202C91.6119 68.789 92.0939 66.9133 93.5017 66.4059C95.2692 65.6333 97.152 67.712 96.3067 69.2833C95.8037 70.6778 93.5995 70.9888 92.6633 69.8202ZM36.5908 65.4401C38.1662 64.4417 40.3669 64.7003 41.7782 65.8493C41.4254 66.2454 41.0726 66.6415 40.7267 67.0409L40.6926 67.0193C39.9226 66.5315 38.9558 65.919 38.023 66.4255C36.1996 67.0638 36.3044 69.9282 38.1802 70.4487C39.1269 70.8251 40.063 70.2294 40.8036 69.7252C40.8941 69.8199 40.9851 69.9149 41.0763 70.0101C41.3162 70.2604 41.5578 70.5125 41.7956 70.7662C40.332 72.3179 37.4571 72.4292 35.9516 70.8808C34.4076 69.3651 34.694 66.5793 36.5908 65.4401ZM3.55156 64.9946C2.37559 64.9958 1.19944 64.997 0.0244513 64.9819C0.0139853 65.456 0.0070062 65.9333 2.70435e-05 66.4106L0 66.4125C0.754527 66.4125 1.51254 66.4157 2.27056 66.4223C2.27545 67.2732 2.27502 68.124 2.27458 68.9749V68.975C2.27409 69.9475 2.27359 70.9199 2.28104 71.8924C2.81899 71.8858 3.36392 71.8826 3.90536 71.8858C3.90905 71.2429 3.90712 70.6 3.9052 69.9572V69.9572V69.9572V69.9572V69.9571V69.9571V69.9571V69.9571V69.9571V69.9571V69.957C3.90165 68.7704 3.8981 67.5842 3.92982 66.3994C4.4182 66.4059 4.90814 66.4095 5.39756 66.4132C5.64326 66.415 5.88883 66.4168 6.13401 66.419C6.1375 66.0657 6.1375 65.3526 6.1375 64.9989V64.9983C5.27597 64.9928 4.41381 64.9937 3.55156 64.9946ZM23.3553 64.995C21.5109 64.995 19.6665 64.995 17.8256 64.9917C17.8216 66.305 17.8222 67.6182 17.8228 68.9315C17.8232 69.9163 17.8236 70.901 17.8221 71.8858H23.4671V70.452C22.1117 70.452 20.7529 70.452 19.3975 70.4454C19.4045 69.9708 19.415 69.5027 19.4255 69.0345H19.4325C20.5899 69.0345 21.7473 69.0345 22.9082 69.028C22.9047 68.6974 22.9012 68.0361 22.9012 67.7055C21.738 67.7088 20.5747 67.7088 19.415 67.6989V66.3306C20.7249 66.3175 22.0349 66.3175 23.3448 66.3273L23.3553 64.995ZM55.1395 64.995C54.5945 64.9917 54.0531 64.9917 53.5117 64.9917C53.5042 66.6332 53.5056 68.2731 53.507 69.9137C53.5076 70.5698 53.5082 71.226 53.5082 71.8825C54.0496 71.8825 54.591 71.8858 55.1325 71.8924C55.1395 70.9758 55.1395 70.0592 55.1395 69.1426H58.0493V71.8858C58.6291 71.8825 59.2125 71.8825 59.7959 71.8858C59.7946 71.0501 59.7952 70.2143 59.7957 69.3786C59.7968 67.9163 59.7978 66.454 59.7889 64.9917C59.209 64.9884 58.6326 64.9884 58.0563 64.9917C58.0484 65.6694 58.0464 66.3489 58.0445 67.0302V67.031C58.0438 67.2578 58.0432 67.4848 58.0423 67.712C57.0747 67.712 56.1036 67.7087 55.136 67.6891C55.1395 66.7889 55.1395 65.8919 55.1395 64.995ZM71.9698 64.9785C72.1547 65.0048 72.3615 64.9949 72.5708 64.9849C73.0656 64.9612 73.5746 64.9369 73.8422 65.3877C73.9728 65.5479 74.1036 65.7079 74.2343 65.8679L74.2366 65.8706L74.2391 65.8737L74.2424 65.8778L74.2469 65.8833L74.2527 65.8904L74.2606 65.9L74.2717 65.9136C75.1389 66.9747 76.0058 68.0355 76.8393 69.1229C76.8603 67.7447 76.8603 66.3698 76.8568 64.9949C77.4157 64.9916 77.9816 64.9916 78.544 64.9949C78.5426 65.9168 78.5434 66.8388 78.5443 67.7607V67.7649C78.5455 69.1461 78.5468 70.5274 78.5405 71.9086C78.3549 71.8684 78.1408 71.8795 77.9252 71.8906C77.4915 71.9129 77.0517 71.9356 76.8253 71.542C76.38 71.0252 75.9569 70.4922 75.5341 69.9596L75.5341 69.9595L75.534 69.9594C74.899 69.1593 74.2645 68.3598 73.5557 67.617C73.5517 68.4279 73.5523 69.2398 73.5529 70.0528V70.0532V70.0536V70.054V70.0544V70.0548V70.0551V70.0555C73.5533 70.6661 73.5537 71.2773 73.5522 71.889L73.5462 71.889C73.0173 71.8857 72.4918 71.8825 71.9663 71.8857C71.9677 70.9654 71.9669 70.0446 71.966 69.1237V69.1235V69.1234V69.1233V69.1232V69.1231V69.1229V69.1228V69.1188C71.9648 67.7385 71.9635 66.3579 71.9698 64.9785ZM110.101 64.9917C110.643 64.9917 111.184 64.9917 111.729 64.995V70.452C112.542 70.4498 113.356 70.4505 114.171 70.4513C114.578 70.4516 114.986 70.452 115.394 70.452C115.39 70.9267 115.39 71.4046 115.394 71.8858H110.098C110.098 71.2292 110.097 70.5727 110.097 69.9161C110.095 68.2746 110.094 66.6332 110.101 64.9917ZM133.988 67.3225C133.415 65.2897 130.749 64.3043 128.751 65.0736C127.155 65.6072 126.107 67.2079 126.344 68.7858C126.432 70.8187 128.667 72.2656 130.739 71.9579C133.072 71.8138 134.787 69.3849 133.988 67.3225ZM129.37 70.3735C127.567 69.7384 127.626 66.9559 129.471 66.3961C130.896 65.8003 132.594 67.0967 132.416 68.5108C132.461 69.9086 130.728 71.0282 129.37 70.3735ZM147.608 65.2962C149.145 64.4974 151.181 64.7102 152.509 65.7872C152.166 66.1702 151.824 66.5565 151.489 66.9428L151.423 66.9074C150.628 66.4744 149.661 65.9477 148.757 66.4288C147.244 66.9853 146.996 69.1557 148.229 70.0854C149.043 70.7532 150.329 70.6943 151.178 70.1116C151.586 69.1114 150.682 69.1469 149.931 69.1764C149.783 69.1822 149.64 69.1879 149.515 69.1851C149.511 68.7301 149.511 68.2816 149.515 67.8332C150.58 67.8299 151.646 67.8299 152.715 67.8332C152.686 68.2199 152.703 68.6165 152.72 69.0137V69.0139V69.0142V69.0144C152.749 69.6927 152.778 70.3728 152.582 71.0085C150.867 72.3245 147.957 72.3965 146.504 70.6943C145.061 69.0738 145.589 66.2815 147.608 65.2962ZM166.474 64.9984C165.915 64.9951 165.356 64.9951 164.801 64.9984C164.807 66.4347 164.807 67.8697 164.807 69.3042V69.3306C164.807 70.1825 164.807 71.0342 164.808 71.8859H166.471C166.471 71.3138 166.47 70.7415 166.47 70.169V70.1687V70.1684C166.47 68.4451 166.469 66.7208 166.474 64.9984ZM178.777 64.9983C180.614 64.9917 182.452 64.9917 184.293 64.9983C184.289 65.3289 184.286 65.9934 184.286 66.3241C182.979 66.3175 181.673 66.3175 180.37 66.3273C180.366 66.7824 180.366 67.2406 180.373 67.7055C180.951 67.7055 181.528 67.7063 182.106 67.7071L182.107 67.7071C182.686 67.7079 183.265 67.7088 183.845 67.7088C183.852 67.8692 183.862 68.1114 183.872 68.3537C183.881 68.5959 183.891 68.8381 183.898 68.9985C183.015 69.0378 182.132 69.0384 181.251 69.0391C180.957 69.0393 180.663 69.0395 180.37 69.0411C180.363 69.5082 180.363 69.9753 180.363 70.4489V70.452C180.698 70.452 181.033 70.4518 181.368 70.4516H181.368C182.375 70.451 183.382 70.4504 184.39 70.4553C184.386 70.7722 184.384 71.0906 184.383 71.4105C184.382 71.5696 184.381 71.7292 184.38 71.8891C182.511 71.8826 180.646 71.8858 178.78 71.8891C178.779 70.9042 178.779 69.9192 178.78 68.9346V68.9213C178.78 67.613 178.781 66.3051 178.777 64.9983ZM201.371 65.6367C200.04 64.923 198.237 64.4058 196.872 65.3224C195.534 66.1637 195.764 68.4487 197.434 68.8022C197.688 68.9195 198.015 68.9907 198.347 69.063C199.192 69.2468 200.068 69.4377 199.865 70.4128C198.719 70.7794 197.57 70.3964 196.648 69.7482C196.599 69.8061 196.55 69.8639 196.501 69.9218C196.224 70.2471 195.947 70.5731 195.68 70.9038C196.945 71.7811 198.625 72.2885 200.162 71.7517C201.507 71.3719 202.052 69.6468 201.172 68.6287C200.716 68.0906 200.033 67.9206 199.353 67.7512C198.646 67.5754 197.943 67.4004 197.5 66.8151C198.237 65.7512 199.652 66.383 200.532 66.9232C200.815 66.4976 201.098 66.0688 201.371 65.6367Z" fill="#FEFEFE"/>
</svg>
