<svg width="122" height="36" viewBox="0 0 122 36" fill="none" xmlns="http://www.w3.org/2000/svg">
<path d="M68.9942 7.67325C69.6361 7.67659 70.2539 7.43181 70.7162 6.99097C71.1767 6.55181 71.4438 5.95073 71.4596 5.31791C71.452 4.67634 71.1897 4.0635 70.7295 3.61174C70.2674 3.15799 69.6449 2.90051 68.9942 2.89385C68.3525 2.90863 67.742 3.1708 67.2927 3.62465C66.8454 4.07672 66.5961 4.68508 66.5988 5.31791C66.6043 5.94188 66.8586 6.53848 67.3062 6.97775C67.7555 7.41889 68.3614 7.66836 68.9942 7.67325ZM85.7475 9.93801H91.6937V10.402C91.3636 10.459 91.045 10.5672 90.7504 10.7225C90.2069 10.9726 89.1189 12.1847 88.2838 14.2158C86.871 17.7452 85.3862 21.914 83.8276 26.6919L83.2477 28.5036C82.9926 29.3225 82.775 29.857 82.6667 30.1796C82.5574 30.502 82.4116 30.9985 82.1596 31.6036C82.016 32.0588 81.8306 32.5003 81.6068 32.9227C81.3153 33.4571 80.7718 34.5533 80.3376 34.883C79.6483 35.4538 78.6332 36.095 77.365 35.9882C74.8999 35.9882 73.0514 34.1764 73.0149 32.0331C73.0149 30.5709 73.9581 29.6088 75.3711 29.6088C76.3866 29.6088 77.2911 30.1524 77.2911 31.2829C77.2911 32.1037 76.4592 32.9588 76.4592 33.3865C76.4592 34.4916 77.111 35.017 78.3802 35.017C79.3932 35.017 80.2231 34.3756 80.8436 33.0928C81.6786 31.6308 81.7505 30.0275 81.0612 28.2445L75.843 14.6649C74.6453 11.5289 73.7393 10.498 72.6166 10.3875V9.92333H80.8436V10.3871C79.8659 10.4941 79.3589 11.0648 79.3589 12.0974C79.3589 12.8457 79.6483 13.9871 80.1918 15.4493L81.1695 18.0857C82.294 20.9373 83.1967 23.4321 83.6725 25.0013C84.722 21.758 85.6996 18.9063 86.645 16.4115C87.3343 14.5579 87.6602 13.2391 87.6602 12.4544C87.6602 11.0648 86.898 10.4235 85.7382 10.4235L85.7475 9.93801ZM28.5081 27.297C27.4579 27.1158 26.5514 26.1917 26.5514 24.2314V0.600037L20.57 1.88287V2.38305C21.5854 2.27601 22.5969 3.16549 22.5969 5.05533V24.2314C22.5969 26.0849 21.5816 27.1538 20.57 27.297C20.4751 27.3133 20.3789 27.3249 20.2826 27.3312C19.7649 27.3663 19.2464 27.2762 18.7717 27.0687C17.9684 26.7243 17.2977 26.1102 16.73 25.1935L13.9663 20.8451C13.3833 19.9279 12.5169 19.2215 11.4959 18.8312C10.4724 18.4393 9.34889 18.3831 8.29085 18.6709L11.4085 15.2849C13.7634 12.7193 15.9396 11.0797 18.0051 10.4022V9.93781H11.147V10.4018C12.9231 11.0792 12.8144 12.5759 10.7785 14.9313L6.3931 19.9552V0.600037L0.411865 1.88287V2.38305C1.42711 2.38305 2.43861 3.37935 2.43861 5.12592V24.2314C2.43861 26.3349 1.46043 27.1538 0.411865 27.297V27.7608H8.35717V27.297C7.05268 27.1158 6.40039 26.1211 6.40039 24.2314V20.7038L8.10292 18.8504L12.2268 25.5142C13.2052 27.1194 14.1117 27.7608 15.5619 27.7608H29.3631V27.3984C29.3631 27.3984 28.9688 27.3712 28.5081 27.297ZM44.974 25.0431V17.0711C44.8946 11.8587 42.6724 9.48521 37.5831 9.48521C35.9583 9.47271 34.3761 9.99944 33.089 10.9815C31.7477 11.9799 31.0953 13.1213 31.0953 14.4404C31.0953 15.7232 31.8195 16.6852 33.0153 16.6852C34.285 16.6852 35.1915 15.9731 35.1915 14.9749C35.1915 14.2265 34.6828 13.1921 34.6828 12.4799C34.6828 11.1955 35.6632 10.0903 37.3657 10.0903C39.542 10.0903 41.099 11.6956 41.099 15.2592V17.3973L39.2875 17.8248C38.3442 18.0059 37.5483 18.1872 36.9308 18.3683C36.3136 18.5495 35.5177 18.796 34.5741 19.1511C32.6891 19.865 31.6757 20.5425 30.8044 21.8254C30.3776 22.4454 30.1503 23.1786 30.152 23.9288C30.152 26.8857 32.2542 28.241 35.1915 28.241C37.5112 28.241 39.9823 27.0288 41.099 24.7478C41.115 25.4672 41.2902 26.1746 41.6131 26.8204C42.842 29.2664 46.9125 27.8205 46.9125 27.8205V27.3569C45.1306 27.6304 44.9832 25.5467 44.974 25.0431ZM41.1044 22.5754C41.1044 23.7512 40.6695 24.7133 39.7999 25.3909C38.967 26.0686 38.0973 26.4255 37.1907 26.4255C35.4144 26.4255 34.2536 25.2841 34.2536 23.1804C34.2536 22.1841 34.8063 21.2563 35.2689 20.722C35.6354 20.3529 36.0653 20.0509 36.5384 19.8304C37.1539 19.5097 37.4596 19.3449 37.8798 19.1528L39.5382 18.5478C40.371 18.2271 40.8778 18.0495 41.0952 17.9427L41.1044 22.5754ZM121.188 9.93801H107.091V0.600037H121.188L118.229 5.26908L121.188 9.93801ZM92.5318 25.4923C91.6645 24.6151 90.9805 23.577 90.5192 22.4375C90.058 21.2981 89.8279 20.0797 89.8435 18.8521C89.8248 17.6304 90.0518 16.4172 90.513 15.284C90.9763 14.1488 91.6624 13.1161 92.5318 12.2462C94.3101 10.391 96.4883 9.46157 99.0308 9.46157C101.535 9.46157 103.715 10.391 105.493 12.2462C106.374 13.1091 107.071 14.1399 107.539 15.2762C108.008 16.4105 108.238 17.6271 108.216 18.8521C108.234 20.082 108.003 21.3027 107.535 22.4422C107.067 23.5836 106.372 24.6208 105.493 25.4923C103.715 27.3041 101.535 28.241 99.0308 28.241C96.4883 28.241 94.3101 27.3131 92.5318 25.4923ZM102.298 12.5434C101.581 11.1646 100.639 10.3566 99.5337 10.1391C97.2921 9.69532 95.3086 11.9617 94.5704 15.5656C94.255 17.1821 94.1779 18.8353 94.3435 20.4737C94.5059 22.1132 94.9692 23.7096 95.7105 25.1844C96.4289 26.565 97.3691 27.3712 98.4748 27.5886C100.716 28.0325 102.756 25.6699 103.501 22.0299C104.118 18.988 103.805 15.283 102.289 12.5416L102.298 12.5434Z" fill="#95BF46"/>
<path d="M71.3602 24.1639V9.97064H58.4723V10.3972C60.1938 10.6455 61.0127 11.9014 60.2312 13.9378C56.2037 24.5202 56.4605 24.0452 56.2037 24.8944C55.947 24.0794 55.3606 22.0771 54.4097 19.5654C53.4586 17.0539 52.8352 15.388 52.5785 14.6449C51.5901 11.7068 51.9195 10.6094 53.5311 10.4331V9.97252H45.1824V10.4331C46.4275 10.6815 47.5255 12.0612 48.4412 14.5386L49.7233 17.7591C51.1322 21.2386 52.7869 26.035 53.3395 27.6706H56.1143C57.0077 25.1517 60.5921 15.1001 61.0722 14.0782C61.5896 12.914 62.1758 12.0324 62.8311 11.4226C63.1478 11.0939 63.5326 10.8346 63.9603 10.6619C64.3886 10.4886 64.8499 10.4057 65.3137 10.4187C65.3137 10.4187 67.3254 10.4187 67.3254 12.2952V24.1639C67.3254 26.1431 66.3373 27.0661 65.3117 27.2081V27.6687H73.2941V27.2081C72.2388 27.0661 71.3602 26.1466 71.3602 24.1639Z" fill="#95BF46"/>
</svg>
