<svg width="140" height="50" viewBox="0 0 140 50" fill="none" xmlns="http://www.w3.org/2000/svg">
<path fill-rule="evenodd" clip-rule="evenodd" d="M111.109 15.0819C107.287 21.7112 103.466 28.3403 99.623 34.956C101.69 34.9956 103.757 34.99 105.825 34.9845C107.203 34.9808 108.581 34.9771 109.959 34.9868C111.431 32.4447 112.898 29.8999 114.366 27.3553C116.177 24.2135 117.989 21.0719 119.808 17.9356C121.882 21.5129 123.947 25.0946 126.012 28.6767C127.223 30.7787 128.435 32.8808 129.649 34.9824C130.634 34.9824 131.62 34.9831 132.605 34.9838C135.07 34.9856 137.534 34.9874 140 34.978C133.255 23.3304 126.525 11.6696 119.817 0C116.908 5.02351 114.009 10.0528 111.109 15.0819ZM19.7209 0.0441397C15.9623 0.154147 12.1715 0.959403 8.82697 2.76793C5.62616 4.45544 2.88445 7.16162 1.37844 10.5388C-0.440787 14.6201 -0.43864 19.4693 1.26259 23.5923C2.71068 27.1126 5.40734 30.0146 8.62102 31.9067C12.1029 33.977 16.1425 34.9451 20.1499 34.9869C23.4868 34.9819 26.8244 34.9826 30.1619 34.9833C32.665 34.9839 35.1681 34.9844 37.6707 34.9825C39.1466 33.0291 40.6197 31.0748 42.093 29.1201C42.8748 28.0828 43.6568 27.0455 44.4392 26.0081C39.6229 26.0002 34.8066 26.0018 29.9903 26.0033C26.7788 26.0044 23.5673 26.0055 20.3559 26.0037C17.2688 25.9531 13.9693 24.8508 12.0492 22.2414C9.91465 19.4164 10.1206 15.0756 12.4847 12.4574C14.4413 10.1736 17.4726 9.19016 20.3666 9.13516C25.0156 9.13186 29.6658 9.13227 34.3163 9.13268C35.8656 9.13282 37.415 9.13296 38.9643 9.13296C40.4608 10.8125 41.9559 12.4936 43.451 14.1749C46.1807 17.2443 48.9107 20.314 51.6496 23.3745C51.6567 24.9726 51.6543 26.5706 51.6518 28.1687C51.6484 30.4429 51.645 32.7171 51.6689 34.9913C53.7901 34.9807 55.9121 34.9821 58.0344 34.9834C59.4494 34.9843 60.8645 34.9852 62.2796 34.9825C62.282 33.5523 62.2806 32.1222 62.2791 30.6921C62.2766 28.2722 62.2742 25.8526 62.2903 23.4339C64.7498 20.6152 67.1942 17.7826 69.6387 14.9498C71.3137 13.0087 72.9888 11.0675 74.6688 9.13075C76.5271 9.13369 78.3854 9.13314 80.2439 9.1326C82.567 9.13192 84.8905 9.13124 87.2146 9.13735C87.2185 14.3068 87.2177 19.4755 87.2169 24.6443C87.2164 28.0902 87.2159 31.5362 87.2168 34.9825C87.9382 34.9867 88.6597 34.9848 89.3812 34.983C90.5583 34.9799 91.7354 34.9769 92.9126 35.0001C94.1681 32.8952 95.3735 30.7573 96.5772 28.6223L96.699 28.4063C96.8065 27.831 96.7779 27.2408 96.7492 26.6496C96.7287 26.2255 96.7081 25.801 96.7377 25.3811C96.6325 19.9665 96.5339 14.5497 96.5231 9.13296C97.4688 9.13296 98.4145 9.13282 99.3601 9.13268C102.199 9.13227 105.037 9.13186 107.876 9.13516C109.627 6.10555 111.377 3.07374 113.121 0.0419374C109.467 0.0419374 105.813 0.0420746 102.158 0.0422119C91.1873 0.0426239 80.2158 0.0430359 69.2455 0.0397351C68.3726 1.10073 67.5155 2.17503 66.6584 3.24936C66.0368 4.02855 65.4152 4.80776 64.7875 5.58191C63.9397 6.66212 63.0762 7.72957 62.2128 8.797C60.5157 10.8951 58.8186 12.9931 57.2403 15.1878C56.2484 13.9228 55.1929 12.7136 54.1372 11.5042C53.5147 10.791 52.8921 10.0777 52.2825 9.35297C51.3642 8.25608 50.4439 7.16102 49.5236 6.06597C47.9648 4.21117 46.4061 2.35642 44.8575 0.492972C44.8112 0.448149 44.7669 0.394525 44.7219 0.34001C44.5813 0.169754 44.4335 -0.0091895 44.1946 0.0441397C36.0381 0.0419395 27.8795 0.0397394 19.7209 0.0441397Z" fill="#95BF46"/>
<path fill-rule="evenodd" clip-rule="evenodd" d="M68.2139 47.3201C68.1581 45.6288 66.0379 44.5171 64.432 45.2082C63.3986 45.5401 62.7169 46.5563 62.7703 47.5656C62.7364 48.8478 63.942 49.973 65.3004 49.9867C66.8772 50.1481 68.3885 48.8114 68.2139 47.3201ZM64.3495 48.4863C63.6194 47.7702 63.9541 46.4676 64.9317 46.1153C66.1592 45.5788 67.4667 47.0223 66.8796 48.1135C66.5303 49.0819 64.9996 49.2979 64.3495 48.4863ZM25.4103 45.4446C26.5043 44.7513 28.0326 44.9309 29.0126 45.7288L29.0125 45.7289C28.7676 46.0039 28.5226 46.279 28.2825 46.5563L28.2588 46.5413C27.724 46.2025 27.0527 45.7772 26.4049 46.1289C25.1386 46.5722 25.2114 48.5613 26.514 48.9228C27.1714 49.1842 27.8215 48.7705 28.3358 48.4204L28.5253 48.6183L28.5255 48.6185C28.692 48.7922 28.8597 48.9672 29.0248 49.1433C28.0083 50.2208 26.0119 50.2981 24.9664 49.2228C23.8942 48.1703 24.0931 46.2357 25.4103 45.4446ZM2.46636 45.1352C1.64971 45.136 0.832942 45.1369 0.0169788 45.1264C0.00970697 45.4558 0.00485914 45.7874 1.12732e-05 46.1191L0 46.1198C0.523976 46.1198 1.05038 46.1221 1.57678 46.1267C1.58018 46.7176 1.57987 47.3085 1.57957 47.8994C1.57923 48.5747 1.57888 49.25 1.58406 49.9253C1.95763 49.9208 2.33606 49.9185 2.71206 49.9208C2.71461 49.4743 2.71328 49.0278 2.71194 48.5813C2.70948 47.7573 2.70701 46.9335 2.72904 46.1107C3.06816 46.1153 3.40836 46.1178 3.7482 46.1203H3.74822H3.74823H3.74824H3.74825H3.74826H3.74827H3.74828H3.74829H3.7483H3.74831L3.74841 46.1203L3.7485 46.1203L3.74859 46.1203L3.74869 46.1203L3.74878 46.1203L3.74887 46.1203L3.74897 46.1203L3.74906 46.1203L3.74915 46.1203L3.74925 46.1203C3.91956 46.1216 4.08978 46.1229 4.25973 46.1244C4.26215 45.879 4.26215 45.3839 4.26215 45.1382V45.1378C3.66387 45.1339 3.06515 45.1346 2.46636 45.1352H2.46636ZM16.219 45.1355C14.9381 45.1355 13.6573 45.1355 12.3789 45.1332C12.3761 46.0449 12.3765 46.9565 12.3769 47.8681V47.869C12.3772 48.5529 12.3775 49.2368 12.3765 49.9208H16.2966V48.9251C15.3554 48.9251 14.4117 48.9251 13.4705 48.9205C13.4754 48.5909 13.4826 48.2658 13.4899 47.9407H13.4948C14.2986 47.9407 15.1023 47.9407 15.9084 47.9362C15.906 47.7066 15.9036 47.2474 15.9036 47.0178C15.0958 47.02 14.288 47.0201 13.4826 47.0132V46.063C14.3923 46.0539 15.302 46.0539 16.2117 46.0607L16.219 45.1355ZM38.2913 45.1355C37.9129 45.1332 37.5369 45.1332 37.1609 45.1332C37.1557 46.2724 37.1567 47.4105 37.1576 48.5491V48.5493V48.5495V48.5498V48.55V48.5503V48.5505V48.5507V48.551C37.158 49.0067 37.1584 49.4625 37.1584 49.9185C37.5344 49.9185 37.9104 49.9208 38.2864 49.9253C38.2913 49.2888 38.2913 48.6523 38.2913 48.0157H40.312V49.9208C40.7147 49.9185 41.1198 49.9185 41.5249 49.9208C41.524 49.3406 41.5244 48.7604 41.5248 48.1803C41.5255 47.1646 41.5262 46.1489 41.5201 45.1332C41.1174 45.1309 40.7171 45.1309 40.3168 45.1332C40.3114 45.6035 40.31 46.075 40.3087 46.5478V46.5479V46.5479V46.5479V46.548V46.548V46.5481V46.5481V46.5495V46.5507V46.552V46.5532V46.5545V46.5557V46.557V46.5582V46.5594C40.3082 46.7136 40.3078 46.8679 40.3072 47.0223C39.6352 47.0223 38.9608 47.02 38.2889 47.0064C38.2913 46.3812 38.2913 45.7584 38.2913 45.1355ZM49.979 45.1241C50.1074 45.1423 50.251 45.1354 50.3964 45.1285C50.74 45.112 51.0935 45.0951 51.2793 45.4082L51.5772 45.773C52.1796 46.5101 52.7817 47.2468 53.3606 48.0021C53.3752 47.045 53.3752 46.0902 53.3728 45.1354C53.7609 45.1332 54.1539 45.1332 54.5444 45.1354C54.5435 45.7756 54.544 46.4157 54.5446 47.0559C54.5455 48.0161 54.5464 48.9764 54.542 49.9366C54.4131 49.9087 54.2645 49.9164 54.1147 49.9241C53.8135 49.9396 53.5081 49.9553 53.3509 49.682C53.0416 49.3231 52.7479 48.953 52.4543 48.5831L52.4542 48.583L52.4541 48.5829L52.4541 48.5829L52.4541 48.5828C52.0131 48.0273 51.5725 47.4721 51.0804 46.9563C51.0776 47.5201 51.078 48.0845 51.0784 48.6497C51.0787 49.0737 51.079 49.4981 51.0779 49.923L51.0737 49.923C50.7064 49.9207 50.3415 49.9185 49.9766 49.9207C49.9776 49.2817 49.977 48.6424 49.9764 48.003V48.0029V48.0028V48.0027V48.0026V48.0026V48.0025V48.0024C49.9755 47.0428 49.9747 46.083 49.979 45.1241ZM76.4593 45.1332C76.8353 45.1332 77.2113 45.1332 77.5898 45.1355V48.9251C78.154 48.9236 78.7193 48.9241 79.2849 48.9246H79.2852C79.5682 48.9248 79.8513 48.9251 80.1344 48.9251C80.132 49.2547 80.132 49.5866 80.1344 49.9208H76.4569C76.4569 49.4651 76.4565 49.0095 76.4561 48.5538V48.5496C76.4551 47.4108 76.4541 46.272 76.4593 45.1332ZM93.0469 46.7518C92.6491 45.3401 90.7982 44.6559 89.4106 45.1901C88.302 45.5606 87.5743 46.6723 87.7392 47.768C87.7999 49.1797 89.3524 50.1845 90.7909 49.9708C92.4113 49.8708 93.6024 48.184 93.0469 46.7518ZM89.84 48.8705C88.5882 48.4295 88.6295 46.4972 89.9103 46.1085C90.9001 45.6947 92.079 46.595 91.9553 47.577C91.9868 48.5477 90.7836 49.3252 89.84 48.8705ZM102.505 45.3446C103.573 44.79 104.987 44.9377 105.909 45.6856C105.671 45.9516 105.433 46.2199 105.2 46.4881L105.155 46.4635C104.603 46.1629 103.931 45.7971 103.303 46.1312C102.253 46.5177 102.081 48.0249 102.937 48.6705C103.502 49.1342 104.395 49.0933 104.984 48.6887C105.268 47.9941 104.64 48.0188 104.119 48.0392C104.016 48.0433 103.917 48.0472 103.83 48.0453C103.827 47.7293 103.827 47.4179 103.83 47.1064C104.57 47.1042 105.31 47.1042 106.052 47.1064C106.032 47.3752 106.044 47.6508 106.056 47.9268C106.076 48.3978 106.096 48.87 105.96 49.3115C104.769 50.2254 102.748 50.2754 101.739 49.0933C100.737 47.968 101.103 46.0289 102.505 45.3446ZM115.607 45.1378C115.219 45.1356 114.831 45.1356 114.445 45.1378C114.45 46.1354 114.449 47.1321 114.449 48.1285C114.449 48.726 114.449 49.3234 114.45 49.9208H115.605C115.605 49.5227 115.604 49.1243 115.604 48.7259V48.7257V48.7255V48.7191C115.604 47.5253 115.603 46.3309 115.607 45.1378ZM124.151 45.1378C125.427 45.1332 126.703 45.1332 127.981 45.1378C127.979 45.3674 127.976 45.8288 127.976 46.0584C127.069 46.0539 126.162 46.0539 125.257 46.0607C125.254 46.3767 125.254 46.695 125.259 47.0178C125.66 47.0178 126.062 47.0183 126.463 47.0189H126.463C126.865 47.0195 127.268 47.02 127.67 47.02C127.675 47.1314 127.682 47.2997 127.689 47.4679C127.695 47.6361 127.702 47.8043 127.707 47.9157C127.094 47.943 126.481 47.9434 125.869 47.9439H125.868C125.664 47.944 125.461 47.9441 125.257 47.9453C125.252 48.2699 125.252 48.5944 125.252 48.9235V48.9251L125.95 48.9248H125.95C126.649 48.9244 127.348 48.9239 128.049 48.9273C128.046 49.1463 128.045 49.3663 128.044 49.5873V49.5904V49.5919C128.043 49.702 128.042 49.8124 128.042 49.9231C126.744 49.9185 125.448 49.9208 124.153 49.9231C124.152 49.2391 124.152 48.5551 124.153 47.8713C124.153 46.9597 124.153 46.0483 124.151 45.1378ZM139.841 45.5811C138.917 45.0855 137.665 44.7263 136.716 45.3629C135.787 45.9471 135.947 47.5339 137.107 47.7794C137.284 47.8609 137.511 47.9103 137.741 47.9605C138.327 48.0881 138.936 48.2207 138.795 48.8978C138 49.1524 137.202 48.8865 136.561 48.4363C136.527 48.4766 136.493 48.5169 136.458 48.5572C136.267 48.783 136.074 49.0093 135.889 49.2388C136.767 49.8481 137.934 50.2004 139.001 49.8276C139.935 49.5639 140.314 48.3659 139.703 47.6589C139.386 47.2852 138.912 47.1671 138.439 47.0495C137.949 46.9275 137.461 46.8059 137.153 46.3995C137.665 45.6607 138.647 46.0994 139.259 46.4745C139.455 46.179 139.652 45.8812 139.841 45.5811Z" fill="#181C36"/>
</svg>
