<svg width="146" height="35" viewBox="0 0 146 35" fill="none" xmlns="http://www.w3.org/2000/svg">
<path d="M74.4999 13.7999C74.4999 13.3249 74.4999 12.8499 74.4999 12.5499L65.2499 22.8749L56.0124 12.4999C56.0124 12.8499 56.0124 13.3499 56.0124 13.8124V30.9999H53.3999V5.99994L64.0874 17.9499C64.4624 18.3124 64.9499 18.8499 65.2624 19.1999C65.5874 18.8624 66.0874 18.3249 66.4374 17.9499L77.1499 5.99994V30.9999H74.4999V13.7999Z" fill="#95BF46"/>
<path d="M87.2124 28.5H97.2124V31H84.6499V7.25H97.1499V9.675H87.2124V17.8125L96.7999 17.8875V20.1H87.2124V28.5Z" fill="#95BF46"/>
<path d="M115.075 12.1126C113.537 10.5384 111.438 9.63916 109.237 9.61258C106.275 9.61258 104.375 11.1751 104.387 13.4626C104.387 15.4126 105.712 16.6876 108.512 17.4501L111.275 18.2251C115.2 19.3126 117.112 21.4126 117.15 24.5376C117.15 28.2876 114 30.9626 109.5 30.9626C107.913 31.0193 106.331 30.7502 104.852 30.1719C103.373 29.5935 102.028 28.7183 100.9 27.6001L102.95 26.0751C104.723 27.7429 107.065 28.6726 109.5 28.6751C112.5 28.6751 114.5 27.0001 114.5 24.6001C114.5 22.4876 113.25 21.3126 110.3 20.4626L107.612 19.7501C103.7 18.6751 101.712 16.5626 101.687 13.5001C101.687 9.91258 104.712 7.35008 109.075 7.25008C110.577 7.21631 112.069 7.5062 113.45 8.10008C114.817 8.68452 116.038 9.56382 117.025 10.6751L115.075 12.1126Z" fill="#95BF46"/>
<path d="M140.225 25.0999H125.45L122.437 30.9999L119.65 30.2124L132.875 5.99994L145.9 30.2124L143.262 30.9624L140.225 25.0999ZM126.712 22.8124H138.937L132.8 10.8499L126.712 22.8124Z" fill="#95BF46"/>
<path d="M15.8999 14.8374L0.149902 7.59991V30.8999L7.7249 34.3874V19.8874L15.8999 23.6374L24.0749 19.8874V34.3874L31.6499 30.8999V7.59991L15.8999 14.8374Z" fill="#B7DD70"/>
<path d="M15.8999 14.8374L0.149902 7.59991V30.8999L7.7249 34.3874V19.8874L15.8999 23.6374V14.8374Z" fill="#95BF46"/>
<path d="M19.7499 21.8751V32.3876L24.0749 34.3876V19.8876L19.7499 21.8751Z" fill="#3EC1C9"/>
<path d="M12.075 21.8876L7.72498 19.8876V34.3876L12.075 32.3626V21.8876Z" fill="#3EC1C9"/>
<path d="M19.7499 21.8751V32.3876L24.0749 34.3876V19.8876L19.7499 21.8751Z" fill="#64891F"/>
<path d="M12.075 21.8876L7.72498 19.8876V34.3876L12.075 32.3626V21.8876Z" fill="#64891F"/>
<path d="M31.6499 7.60004L15.8999 0.350037L0.149902 7.60004L15.8999 14.8375L31.6499 7.60004Z" fill="#81A63C"/>
</svg>
