<svg width="114" height="33" viewBox="0 0 114 33" fill="none" xmlns="http://www.w3.org/2000/svg">
<path d="M24.3489 6.17791C24.2332 6.16819 21.9649 6.13372 21.9649 6.13372C21.9649 6.13372 20.068 4.29106 19.8806 4.10368C19.8108 4.03384 19.7162 3.99757 19.6172 3.98254L19.6181 32.1684L28.119 30.0553C28.119 30.0553 24.6504 6.59875 24.6283 6.43783C24.6062 6.27691 24.4648 6.18763 24.3489 6.17791Z" fill="#95BF46"/>
<path fill-rule="evenodd" clip-rule="evenodd" d="M24.3476 6.17657C24.4643 6.18629 24.6048 6.27557 24.627 6.43649C24.649 6.59741 28.1176 30.0547 28.1176 30.0547L19.6159 32.1687L0 28.7755C0 28.7755 2.34071 10.6715 2.42734 10.0341C2.54402 9.19058 2.57231 9.16322 3.46686 8.88206C3.48591 8.87585 4.09038 8.68865 5.05235 8.39066C5.47446 8.25998 5.9654 8.10788 6.50591 7.94048C6.69506 6.58508 7.36247 4.8344 8.23936 3.44102C9.48573 1.46049 11.0229 0.345583 12.5663 0.301375C13.3663 0.277498 14.0336 0.548938 14.5544 1.10595C14.5914 1.14662 14.6268 1.18817 14.6622 1.23062C14.671 1.22986 14.6799 1.2291 14.6887 1.22833C14.7628 1.22194 14.8363 1.21559 14.9105 1.21559H14.9149C16.1101 1.21735 17.0992 1.89903 17.7746 3.18812C17.984 3.58772 18.1308 3.98561 18.2307 4.30925C18.3831 4.262 18.5198 4.2197 18.6388 4.18289C18.9855 4.07552 19.1836 4.01396 19.1836 4.01396C19.3259 3.97148 19.6918 3.91487 19.8792 4.10234C20.0666 4.28981 21.9636 6.13238 21.9636 6.13238C21.9636 6.13238 24.2319 6.16685 24.3476 6.17657ZM16.2716 4.91585C16.6209 4.80767 16.9484 4.70624 17.2486 4.61336C17.0055 3.82298 16.4291 2.4976 15.2579 2.27568C15.6221 3.21557 15.7149 4.30304 15.7264 5.0846C15.9132 5.02682 16.0952 4.97048 16.2716 4.91585ZM11.4251 6.41705L14.7002 5.40293C14.7108 4.54973 14.6179 3.28802 14.191 2.39681C13.7366 2.58425 13.353 2.91227 13.079 3.20666C12.3418 3.99803 11.7416 5.20484 11.4251 6.41705ZM13.5254 1.5719C13.2646 1.40037 12.9596 1.3208 12.5972 1.32875C10.2149 1.39772 8.13681 5.11907 7.60551 7.5992C8.09322 7.44854 8.60528 7.28987 9.13149 7.12679C9.51327 7.00844 9.90252 6.88784 10.2954 6.76625C10.5951 5.19071 11.3464 3.55766 12.3268 2.50556C12.705 2.09974 13.1081 1.78852 13.5254 1.5719ZM13.9168 14.2449L14.9041 10.55C14.9041 10.55 14.0529 10.1257 12.3893 10.2326C8.07121 10.5049 6.1141 13.5252 6.3024 16.5057C6.42803 18.4953 7.60001 19.3272 8.62723 20.0562C9.42858 20.6249 10.1418 21.1311 10.2015 22.0758C10.2342 22.5966 9.91071 23.3331 9.00549 23.3905C7.61946 23.4781 5.88783 22.1713 5.88783 22.1713L5.22573 24.9882C5.22573 24.9882 6.9459 26.8317 10.0707 26.6345C12.6739 26.47 14.4807 24.387 14.2889 21.3419C14.1413 19.0008 12.4931 17.9437 11.1903 17.1081C10.3391 16.5623 9.63549 16.1109 9.59427 15.458C9.57474 15.1547 9.59508 13.947 11.5098 13.8258C12.8154 13.7436 13.9168 14.2449 13.9168 14.2449Z" fill="#95BF46"/>
<path d="M39.3131 18.2864C38.3355 17.7558 37.8331 17.3085 37.8331 16.6938C37.8331 15.9116 38.531 15.4091 39.6208 15.4091C40.8894 15.4091 42.0222 15.9396 42.0222 15.9396L42.9156 13.2018C42.9156 13.2018 42.0941 12.559 39.676 12.559C36.311 12.559 33.9789 14.4865 33.9789 17.1963C33.9789 18.7327 35.0679 19.906 36.5205 20.7434C37.6937 21.4135 38.1127 21.8888 38.1127 22.5868C38.1127 23.3129 37.5262 23.8996 36.4373 23.8996C34.8144 23.8996 33.2819 23.0612 33.2819 23.0612L32.3324 25.799C32.3324 25.799 33.7484 26.7488 36.1304 26.7488C39.5936 26.7488 42.0792 25.0449 42.0792 21.972C42.0783 20.3252 40.8219 19.1518 39.3131 18.2864Z" fill="#95BF46"/>
<path d="M53.1102 12.5321C51.4065 12.5321 50.066 13.3424 49.0332 14.571L48.9771 14.5429L50.457 6.80566H46.6029L42.8608 26.4982H46.7151L47.9995 19.7668C48.5019 17.2246 49.8143 15.661 51.0435 15.661C51.9089 15.661 52.2447 16.2477 52.2447 17.086C52.2447 17.6166 52.1886 18.2594 52.0772 18.79L50.6253 26.4991H54.4797L55.9873 18.5382C56.1551 17.6999 56.2671 16.695 56.2671 16.0241C56.2655 13.8448 55.1206 12.5321 53.1102 12.5321Z" fill="#95BF46"/>
<path d="M64.9787 12.5317C60.3423 12.5317 57.2714 16.7218 57.2714 21.3862C57.2714 24.3748 59.114 26.7768 62.5774 26.7768C67.1293 26.7768 70.2014 22.699 70.2014 17.9223C70.2014 15.1573 68.5812 12.5317 64.9787 12.5317ZM63.0798 23.8171C61.767 23.8171 61.2084 22.6998 61.2084 21.303C61.2084 19.0965 62.3538 15.4932 64.4482 15.4932C65.8167 15.4932 66.2627 16.6665 66.2627 17.8119C66.2627 20.1857 65.1189 23.8171 63.0798 23.8171Z" fill="#95BF46"/>
<path d="M80.0592 12.5317C77.4576 12.5317 75.9815 14.8223 75.9815 14.8223H75.9262L76.1498 12.7554H72.7426C72.5754 14.1524 72.2674 16.2746 71.961 17.8671L69.2798 31.9726H73.134L74.1945 26.2743H74.2789C74.2789 26.2743 75.0697 26.7768 76.5412 26.7768C81.0649 26.7768 84.0249 22.1404 84.0249 17.4471C84.0249 14.8504 82.8795 12.5317 80.0592 12.5317ZM76.3728 23.8724C75.3723 23.8724 74.7802 23.3137 74.7802 23.3137L75.4227 19.7104C75.8699 17.3085 77.1263 15.7159 78.4672 15.7159C79.6402 15.7159 80.0029 16.8051 80.0029 17.839C80.0029 20.3251 78.523 23.8724 76.3728 23.8724Z" fill="#95BF46"/>
<path d="M89.5262 7.00085C88.2979 7.00085 87.3203 7.97861 87.3203 9.23528C87.3203 10.3806 88.0462 11.1628 89.1353 11.1628H89.1911C90.3925 11.1628 91.4248 10.3525 91.4536 8.92838C91.4536 7.81112 90.6994 7.00085 89.5262 7.00085Z" fill="#95BF46"/>
<path d="M84.1367 26.4978H87.9898L90.6155 12.8394H86.7334L84.1367 26.4978Z" fill="#95BF46"/>
<path d="M100.419 12.812H97.7374L97.8769 12.1693C98.1001 10.8564 98.8822 9.6831 100.167 9.6831C100.852 9.6831 101.395 9.87867 101.395 9.87867L102.149 6.86205C102.149 6.86205 101.479 6.52698 100.054 6.52698C98.686 6.52698 97.318 6.91812 96.2848 7.81173C94.9717 8.92899 94.357 10.5486 94.0501 12.1693L93.9394 12.812H92.1511L91.5931 15.7173H93.3805L91.342 26.4993H95.1967L97.2352 15.7173H99.8884L100.419 12.812Z" fill="#95BF46"/>
<path d="M109.689 12.8403C109.689 12.8403 107.28 18.9113 106.198 22.2253H106.142C106.069 21.1581 105.193 12.8403 105.193 12.8403H101.143L103.462 25.3814C103.518 25.6603 103.49 25.8286 103.378 26.0242C102.93 26.8897 102.177 27.7281 101.283 28.3428C100.557 28.8733 99.7478 29.2083 99.1052 29.4319L100.166 32.7003C100.948 32.5328 102.568 31.89 103.936 30.6053C105.696 28.9575 107.315 26.4153 108.991 22.9514L113.71 12.8394L109.689 12.8403Z" fill="#95BF46"/>
</svg>
