<svg width="141" height="34" viewBox="0 0 141 34" fill="none" xmlns="http://www.w3.org/2000/svg">
<path d="M0 32.0444C1.20952 31.9658 2.08131 31.793 2.61538 31.526C3.55787 31.039 4.02911 30.1515 4.02911 28.8635V5.06584C4.02911 3.8249 3.58143 2.96096 2.68607 2.47401C2.16771 2.19127 1.27235 1.99492 0 1.88496V0.659737H14.7498C20.7032 0.659737 25.2428 2.24625 28.3687 5.41927C31.2118 8.30954 32.6334 12.1894 32.6334 17.0589C32.6334 21.4257 31.204 25.125 28.3451 28.1566C25.125 31.5653 20.7581 33.2696 15.2446 33.2696H0V32.0444ZM11.8281 28.8164C11.8753 29.806 12.0559 30.5207 12.3701 30.9605C12.6999 31.4003 13.3911 31.6202 14.4435 31.6202C17.3024 31.6202 19.6507 30.6149 21.4886 28.6043C23.3264 26.578 24.2453 22.6981 24.2453 16.9647C24.2453 13.556 23.7505 10.6265 22.7609 8.17602C21.1587 4.23331 18.4569 2.26195 14.6556 2.26195C13.3989 2.26195 12.5821 2.52899 12.2051 3.06306C11.9538 3.40864 11.8281 4.07623 11.8281 5.06584V28.8164Z" fill="#A0A0A0"/>
<path d="M35.2724 22.219C35.2724 18.8575 36.3012 16.0536 38.359 13.8073C40.4324 11.5611 43.0321 10.438 46.158 10.438C49.3467 10.438 51.9543 11.5847 53.9806 13.878C56.0226 16.1714 57.0437 18.9517 57.0437 22.219C57.0437 25.4391 56.0383 28.2116 54.0277 30.5364C52.0171 32.8455 49.3939 34 46.158 34C43.0164 34 40.4167 32.8769 38.359 30.6306C36.3012 28.3687 35.2724 25.5648 35.2724 22.219ZM42.3645 22.219C42.3645 25.5962 42.5373 27.9603 42.8829 29.3112C43.4327 31.4003 44.5244 32.4449 46.158 32.4449C47.7131 32.4449 48.7341 31.6438 49.2211 30.0416C49.708 28.4394 49.9515 25.8318 49.9515 22.219C49.9515 18.6219 49.6923 16.0222 49.1739 14.42C48.6713 12.802 47.6738 11.9931 46.1816 11.9931C44.5479 11.9931 43.4562 13.0377 42.9064 15.1268C42.5452 16.5248 42.3645 18.8889 42.3645 22.219Z" fill="#A0A0A0"/>
<path d="M59.2114 32.115C60.1381 32.0051 60.7822 31.7852 61.1435 31.4553C61.5047 31.1254 61.7011 30.4893 61.7325 29.5468L61.7796 28.1331V15.009C61.7796 14.0037 61.6068 13.3204 61.2613 12.9591C60.9157 12.5978 60.2324 12.3544 59.2114 12.2287V11.0506H68.377V14.8441C69.398 13.5089 70.4112 12.4486 71.4165 11.6632C72.4218 10.8778 73.5842 10.4851 74.9037 10.4851C75.8933 10.4851 76.7808 10.8071 77.5662 11.4511C78.3673 12.0795 78.7678 13.0062 78.7678 14.2315C78.7678 15.1739 78.4851 15.9515 77.9196 16.5641C77.3698 17.1767 76.6473 17.483 75.7519 17.483C74.7309 17.483 73.8434 17.0039 73.0894 16.0457C72.3511 15.0876 71.8328 14.6085 71.5343 14.6085C70.8903 14.6085 70.2384 15.009 69.5787 15.8101C68.9346 16.5955 68.6126 17.7265 68.6126 19.2031V28.3216C68.6126 29.9238 68.8404 30.9291 69.2959 31.3375C69.7672 31.7302 70.6939 31.9894 72.0762 32.115V33.2696H59.2114V32.115Z" fill="#A0A0A0"/>
<path d="M80.4408 32.115C81.4304 32.0365 82.1372 31.8166 82.5613 31.4553C83.0012 31.094 83.2211 30.34 83.2211 29.1933V13.501H80.4408V11.3805H83.2211V9.58974C83.2211 7.3435 83.5745 5.49781 84.2814 4.05267C85.6165 1.35089 88.0827 0 91.6798 0C93.5962 0 95.2141 0.439824 96.5336 1.31947C97.8688 2.18341 98.5364 3.3301 98.5364 4.75953C98.5364 5.65489 98.2536 6.37745 97.6882 6.92724C97.1384 7.47702 96.4001 7.75191 95.4733 7.75191C94.7036 7.75191 94.0439 7.50058 93.4941 6.99792C92.9443 6.49526 92.6694 5.89051 92.6694 5.18365C92.6694 4.64957 92.8422 4.09194 93.1878 3.51074C93.5491 2.91384 93.7297 2.55255 93.7297 2.42689C93.7297 2.03419 93.5884 1.78286 93.3056 1.6729C93.0229 1.56295 92.7166 1.50797 92.3867 1.50797C91.6013 1.50797 90.9965 1.73574 90.5724 2.19127C90.1483 2.6468 89.9362 3.62855 89.9362 5.13652V11.3805H94.1303V13.501H89.9362V28.3216C89.9362 29.9866 90.1719 31.0076 90.6431 31.3846C91.1301 31.7616 92.1982 32.0051 93.8475 32.115V33.2696H80.4408V32.115Z" fill="#A0A0A0"/>
<path d="M105.723 11.0506V27.4262C105.723 28.4001 105.841 29.1148 106.076 29.5703C106.485 30.3715 107.294 30.772 108.503 30.772C109.273 30.772 110.027 30.5285 110.765 30.0416C111.189 29.7745 111.723 29.3269 112.367 28.6985V15.009C112.367 14.0037 112.163 13.3047 111.755 12.912C111.362 12.5036 110.561 12.2758 109.351 12.2287V11.0506H118.965V28.4158C118.965 29.4211 119.153 30.1201 119.53 30.5128C119.907 30.8898 120.645 31.1254 121.745 31.2197V32.3271C118.76 32.6098 116.875 32.8219 116.09 32.9633C115.32 33.0889 114.079 33.4188 112.367 33.9529V30.772C111.221 31.7616 110.27 32.4606 109.516 32.869C108.197 33.5916 106.822 33.9529 105.393 33.9529C103.838 33.9529 102.385 33.4581 101.034 32.4685C99.6988 31.4789 99.0312 29.7196 99.0312 27.1906V15.009C99.0312 13.988 98.8663 13.3204 98.5364 13.0062C98.2065 12.6921 97.5703 12.4329 96.6279 12.2287V11.0506H105.723Z" fill="#A0A0A0"/>
<path d="M123.936 25.9654H125.279C125.751 28.2744 126.63 29.9081 127.918 30.8663C129.206 31.8087 130.526 32.28 131.877 32.28C133.118 32.28 134.029 32.0051 134.61 31.4553C135.191 30.8898 135.482 30.1515 135.482 29.2405C135.482 28.3765 135.167 27.6383 134.539 27.0256C134.194 26.6958 133.636 26.3423 132.866 25.9654L129.285 24.2218C127.4 23.295 126.049 22.2897 125.232 21.2058C124.4 20.122 123.983 18.8418 123.983 17.3652C123.983 15.496 124.635 13.8859 125.939 12.535C127.243 11.1684 129.065 10.4851 131.405 10.4851C132.426 10.4851 133.51 10.6579 134.657 11.0035C135.804 11.3333 136.518 11.4983 136.801 11.4983C137.194 11.4983 137.469 11.4197 137.626 11.2626C137.799 11.0899 137.94 10.8542 138.05 10.5558H139.11V17.5301H137.885C137.429 15.8965 136.683 14.5849 135.647 13.5953C134.61 12.6057 133.4 12.1109 132.018 12.1109C130.95 12.1109 130.149 12.4093 129.615 13.0062C129.096 13.6031 128.837 14.2472 128.837 14.9383C128.837 15.5038 129.073 16.0693 129.544 16.6348C130 17.216 130.863 17.8129 132.136 18.4255L134.775 19.6979C136.408 20.4833 137.602 21.2451 138.356 21.9834C139.613 23.24 140.241 24.7873 140.241 26.6251C140.241 28.4158 139.589 30.0887 138.286 31.6438C136.997 33.1832 135.058 33.9529 132.466 33.9529C131.822 33.9529 131.17 33.8822 130.51 33.7408C129.866 33.6152 129.065 33.3874 128.107 33.0575L127.282 32.7748C126.984 32.6648 126.795 32.602 126.717 32.5863C126.654 32.5706 126.567 32.5627 126.457 32.5627C126.19 32.5627 125.955 32.6727 125.751 32.8926C125.562 33.0968 125.342 33.4502 125.091 33.9529H123.936V25.9654Z" fill="#A0A0A0"/>
</svg>
