<svg width="114" height="34" viewBox="0 0 114 34" fill="none" xmlns="http://www.w3.org/2000/svg">
<path d="M39.2788 21.6666V13.6882H41.1226C42.5065 13.6882 43.6855 13.1934 44.6596 12.2038C45.6337 11.2142 46.1208 10.0236 46.1208 8.63203V5.55893C46.1208 4.11322 45.6917 2.92263 44.8336 1.98717C43.9136 1.00533 42.6766 0.514404 41.1226 0.514404H36.1013V21.6666H39.2788ZM41.2038 10.5339H39.2788V3.77305H41.2038C41.7605 3.77305 42.2031 3.9412 42.5316 4.2775C42.8602 4.6138 43.0245 5.06027 43.0245 5.61691V8.70161C43.0245 9.20413 42.8486 9.63514 42.4968 9.99463C42.1451 10.3541 41.7141 10.5339 41.2038 10.5339ZM51.1861 21.6666L51.963 16.8076H55.2913L56.045 21.6666H59.3849L55.8479 0.514404H51.4528L47.8694 21.6666H51.1861ZM54.8158 13.6997H52.4501L53.6329 5.36179L54.8158 13.6997ZM66.5027 21.6666V13.6882H68.3466C69.7305 13.6882 70.9094 13.1934 71.8836 12.2038C72.8577 11.2142 73.3447 10.0236 73.3447 8.63203V5.55893C73.3447 4.11322 72.9157 2.92263 72.0575 1.98717C71.1375 1.00533 69.9005 0.514404 68.3466 0.514404H63.3253V21.6666H66.5027ZM68.4278 10.5339H66.5027V3.77305H68.4278C68.9844 3.77305 69.427 3.9412 69.7556 4.2775C70.0842 4.6138 70.2484 5.06027 70.2484 5.61691V8.70161C70.2484 9.20413 70.0726 9.63514 69.7208 9.99463C69.369 10.3541 68.938 10.5339 68.4278 10.5339ZM86.2145 21.6666V18.4775H80.3235V12.6908H84.6258V9.49018H80.3235V3.70347H86.2145V0.514404H77.146V21.6666H86.2145ZM92.8453 21.6666V13.6882H94.6776C94.7781 13.6882 94.8748 13.6843 94.9675 13.6766L96.9158 21.6666H100.36L97.9942 12.4241C99.1307 11.3959 99.6989 10.1319 99.6989 8.63203V5.55893C99.6989 4.03591 99.3317 2.84532 98.5973 1.98717C97.77 1.00533 96.4674 0.514404 94.6892 0.514404H89.6679V21.6666H92.8453ZM94.7704 10.5339H92.8453V3.77305H94.7704C95.9842 3.77305 96.591 4.38767 96.591 5.61691V8.70161C96.591 9.20413 96.4152 9.63514 96.0634 9.99463C95.7116 10.3541 95.2806 10.5339 94.7704 10.5339ZM113.462 21.6666V18.5007H107.594L113.462 3.70347V0.514404H104.161V3.70347H110.041L104.161 18.5007V21.6666H113.462Z" fill="#A0A0A0"/>
<path d="M38.4563 32.4999V32.0349H36.1538V27.3849H35.5913V32.4999H38.4563ZM40.5788 32.6199C40.9488 32.6199 41.2688 32.5461 41.5388 32.3987C41.8088 32.2512 42.0263 32.0474 42.1913 31.7874L41.7863 31.5174C41.6663 31.7174 41.5075 31.8737 41.31 31.9862C41.1125 32.0986 40.8638 32.1549 40.5638 32.1549C40.1938 32.1549 39.9013 32.0274 39.6863 31.7724C39.4713 31.5174 39.3538 31.2099 39.3338 30.8499H42.2213C42.2263 30.7999 42.2288 30.7274 42.2288 30.6324C42.2288 30.3024 42.1563 30.0037 42.0113 29.7362C41.8663 29.4687 41.6663 29.2574 41.4113 29.1024C41.1563 28.9474 40.8713 28.8699 40.5563 28.8699C40.2213 28.8699 39.9225 28.9499 39.66 29.1099C39.3975 29.2699 39.1925 29.4924 39.045 29.7774C38.8975 30.0624 38.8238 30.3849 38.8238 30.7449C38.8238 31.1049 38.8988 31.4274 39.0488 31.7124C39.1988 31.9974 39.4063 32.2199 39.6713 32.3799C39.9363 32.5399 40.2388 32.6199 40.5788 32.6199ZM41.7188 30.4299H39.3638C39.4188 30.1149 39.55 29.8537 39.7575 29.6462C39.965 29.4387 40.2313 29.3349 40.5563 29.3349C40.8913 29.3349 41.1563 29.4262 41.3513 29.6087C41.5463 29.7912 41.6688 30.0649 41.7188 30.4299ZM44.5088 32.6199C44.7588 32.6199 44.9888 32.5636 45.1988 32.4511C45.4088 32.3387 45.5862 32.1824 45.7312 31.9824V32.4999H46.2412V28.9899H45.7312V29.5149C45.5862 29.3099 45.4075 29.1512 45.195 29.0387C44.9825 28.9262 44.7488 28.8699 44.4938 28.8699C44.1588 28.8699 43.86 28.9499 43.5975 29.1099C43.335 29.2699 43.13 29.4912 42.9825 29.7737C42.835 30.0562 42.7613 30.3774 42.7613 30.7374C42.7613 31.1024 42.8363 31.4274 42.9863 31.7124C43.1363 31.9974 43.3438 32.2199 43.6088 32.3799C43.8738 32.5399 44.1738 32.6199 44.5088 32.6199ZM44.4938 32.1549C44.2588 32.1549 44.0488 32.0949 43.8638 31.9749C43.6788 31.8549 43.5338 31.6874 43.4288 31.4724C43.3238 31.2574 43.2713 31.0124 43.2713 30.7374C43.2713 30.4674 43.3238 30.2262 43.4288 30.0137C43.5338 29.8012 43.6788 29.6349 43.8638 29.5149C44.0488 29.3949 44.2588 29.3349 44.4938 29.3349C44.7338 29.3349 44.9475 29.3949 45.135 29.5149C45.3225 29.6349 45.4687 29.8024 45.5737 30.0174C45.6787 30.2324 45.7312 30.4749 45.7312 30.7449C45.7312 31.0149 45.6787 31.2574 45.5737 31.4724C45.4687 31.6874 45.3225 31.8549 45.135 31.9749C44.9475 32.0949 44.7338 32.1549 44.4938 32.1549ZM48.7162 32.6199C48.9662 32.6199 49.1962 32.5636 49.4062 32.4511C49.6162 32.3387 49.7937 32.1824 49.9387 31.9824V32.4999H50.4487V27.0549H49.9387V29.5149C49.7937 29.3099 49.615 29.1512 49.4025 29.0387C49.19 28.9262 48.9562 28.8699 48.7012 28.8699C48.3662 28.8699 48.0675 28.9499 47.805 29.1099C47.5425 29.2699 47.3375 29.4912 47.19 29.7737C47.0425 30.0562 46.9687 30.3774 46.9687 30.7374C46.9687 31.1024 47.0437 31.4274 47.1937 31.7124C47.3437 31.9974 47.5512 32.2199 47.8162 32.3799C48.0812 32.5399 48.3812 32.6199 48.7162 32.6199ZM48.7012 32.1549C48.4662 32.1549 48.2562 32.0949 48.0712 31.9749C47.8862 31.8549 47.7412 31.6874 47.6362 31.4724C47.5312 31.2574 47.4787 31.0124 47.4787 30.7374C47.4787 30.4674 47.5312 30.2262 47.6362 30.0137C47.7412 29.8012 47.8862 29.6349 48.0712 29.5149C48.2562 29.3949 48.4662 29.3349 48.7012 29.3349C48.9412 29.3349 49.155 29.3949 49.3425 29.5149C49.53 29.6349 49.6762 29.8024 49.7812 30.0174C49.8862 30.2324 49.9387 30.4749 49.9387 30.7449C49.9387 31.0149 49.8862 31.2574 49.7812 31.4724C49.6762 31.6874 49.53 31.8549 49.3425 31.9749C49.155 32.0949 48.9412 32.1549 48.7012 32.1549ZM51.9262 28.3074C52.0362 28.3074 52.1312 28.2674 52.2112 28.1874C52.2912 28.1074 52.3312 28.0124 52.3312 27.9024C52.3312 27.7874 52.2912 27.6912 52.2112 27.6137C52.1312 27.5362 52.0362 27.4974 51.9262 27.4974C51.8112 27.4974 51.715 27.5362 51.6375 27.6137C51.56 27.6912 51.5212 27.7849 51.5212 27.8949C51.5212 28.0099 51.56 28.1074 51.6375 28.1874C51.715 28.2674 51.8112 28.3074 51.9262 28.3074ZM52.1812 32.4999V28.9899H51.6712V32.4999H52.1812ZM53.9137 32.4999V30.7449C53.9137 30.3149 54.0037 29.9724 54.1837 29.7174C54.3637 29.4624 54.6337 29.3349 54.9937 29.3349C55.6137 29.3349 55.9237 29.6824 55.9237 30.3774V32.4999H56.4337V30.1524C56.4337 29.8874 56.3724 29.6574 56.2499 29.4624C56.1274 29.2674 55.9624 29.1199 55.7549 29.0199C55.5474 28.9199 55.3212 28.8699 55.0762 28.8699C54.8162 28.8699 54.5874 28.9312 54.3899 29.0537C54.1924 29.1762 54.0337 29.3499 53.9137 29.5749V28.9899H53.4037V32.4999H53.9137ZM59.1487 33.9999C59.4487 33.9999 59.7162 33.9299 59.9512 33.7899C60.1862 33.6499 60.3687 33.4561 60.4987 33.2086C60.6287 32.9611 60.6937 32.6799 60.6937 32.3649V28.9899H60.1837V29.5149C60.0387 29.3099 59.8599 29.1512 59.6474 29.0387C59.4349 28.9262 59.2012 28.8699 58.9462 28.8699C58.6112 28.8699 58.3124 28.9499 58.0499 29.1099C57.7874 29.2699 57.5824 29.4912 57.4349 29.7737C57.2874 30.0562 57.2137 30.3774 57.2137 30.7374C57.2137 31.1024 57.2887 31.4274 57.4387 31.7124C57.5887 31.9974 57.7962 32.2199 58.0612 32.3799C58.3262 32.5399 58.6262 32.6199 58.9612 32.6199C59.2112 32.6199 59.4412 32.5636 59.6512 32.4511C59.8612 32.3387 60.0387 32.1824 60.1837 31.9824V32.3649C60.1837 32.7049 60.0874 32.9849 59.8949 33.2049C59.7024 33.4249 59.4537 33.5349 59.1487 33.5349H57.6937V33.9999H59.1487ZM58.9462 32.1549C58.7112 32.1549 58.5012 32.0949 58.3162 31.9749C58.1312 31.8549 57.9862 31.6874 57.8812 31.4724C57.7762 31.2574 57.7237 31.0124 57.7237 30.7374C57.7237 30.4674 57.7762 30.2262 57.8812 30.0137C57.9862 29.8012 58.1312 29.6349 58.3162 29.5149C58.5012 29.3949 58.7112 29.3349 58.9462 29.3349C59.1862 29.3349 59.3999 29.3949 59.5874 29.5149C59.7749 29.6349 59.9212 29.8024 60.0262 30.0174C60.1312 30.2324 60.1837 30.4749 60.1837 30.7449C60.1837 31.0149 60.1312 31.2574 60.0262 31.4724C59.9212 31.6874 59.7749 31.8549 59.5874 31.9749C59.3999 32.0949 59.1862 32.1549 58.9462 32.1549ZM64.0011 32.4999V30.5424H65.0886C65.5636 30.5424 65.9449 30.4024 66.2324 30.1224C66.5199 29.8424 66.6636 29.4574 66.6636 28.9674C66.6636 28.4724 66.5261 28.0849 66.2511 27.8049C65.9761 27.5249 65.6086 27.3849 65.1486 27.3849H63.4386V32.4999H64.0011ZM65.0736 30.0774H64.0011V27.8499H65.0736C65.4086 27.8499 65.6636 27.9449 65.8386 28.1349C66.0136 28.3249 66.1011 28.6024 66.1011 28.9674C66.1011 29.3324 66.0136 29.6087 65.8386 29.7962C65.6636 29.9837 65.4086 30.0774 65.0736 30.0774ZM68.8536 32.6199C69.1036 32.6199 69.3336 32.5636 69.5436 32.4511C69.7536 32.3387 69.9311 32.1824 70.0761 31.9824V32.4999H70.5861V28.9899H70.0761V29.5149C69.9311 29.3099 69.7523 29.1512 69.5399 29.0387C69.3274 28.9262 69.0936 28.8699 68.8386 28.8699C68.5036 28.8699 68.2049 28.9499 67.9424 29.1099C67.6799 29.2699 67.4749 29.4912 67.3274 29.7737C67.1799 30.0562 67.1061 30.3774 67.1061 30.7374C67.1061 31.1024 67.1811 31.4274 67.3311 31.7124C67.4811 31.9974 67.6886 32.2199 67.9536 32.3799C68.2186 32.5399 68.5186 32.6199 68.8536 32.6199ZM68.8386 32.1549C68.6036 32.1549 68.3936 32.0949 68.2086 31.9749C68.0236 31.8549 67.8786 31.6874 67.7736 31.4724C67.6686 31.2574 67.6161 31.0124 67.6161 30.7374C67.6161 30.4674 67.6686 30.2262 67.7736 30.0137C67.8786 29.8012 68.0236 29.6349 68.2086 29.5149C68.3936 29.3949 68.6036 29.3349 68.8386 29.3349C69.0786 29.3349 69.2924 29.3949 69.4799 29.5149C69.6674 29.6349 69.8136 29.8024 69.9186 30.0174C70.0236 30.2324 70.0761 30.4749 70.0761 30.7449C70.0761 31.0149 70.0236 31.2574 69.9186 31.4724C69.8136 31.6874 69.6674 31.8549 69.4799 31.9749C69.2924 32.0949 69.0786 32.1549 68.8386 32.1549ZM72.0486 33.9999V31.9749C72.1936 32.1799 72.3723 32.3387 72.5848 32.4511C72.7973 32.5636 73.0311 32.6199 73.2861 32.6199C73.6211 32.6199 73.9198 32.5399 74.1823 32.3799C74.4448 32.2199 74.6498 31.9987 74.7973 31.7162C74.9448 31.4337 75.0186 31.1124 75.0186 30.7524C75.0186 30.3874 74.9436 30.0624 74.7936 29.7774C74.6436 29.4924 74.4361 29.2699 74.1711 29.1099C73.9061 28.9499 73.6061 28.8699 73.2711 28.8699C73.0211 28.8699 72.7911 28.9262 72.5811 29.0387C72.3711 29.1512 72.1936 29.3074 72.0486 29.5074V28.9899H71.5386V33.9999H72.0486ZM73.2861 32.1549C73.0461 32.1549 72.8323 32.0949 72.6448 31.9749C72.4573 31.8549 72.3111 31.6874 72.2061 31.4724C72.1011 31.2574 72.0486 31.0149 72.0486 30.7449C72.0486 30.4749 72.1011 30.2324 72.2061 30.0174C72.3111 29.8024 72.4573 29.6349 72.6448 29.5149C72.8323 29.3949 73.0461 29.3349 73.2861 29.3349C73.5211 29.3349 73.7311 29.3949 73.9161 29.5149C74.1011 29.6349 74.2461 29.8024 74.3511 30.0174C74.4561 30.2324 74.5086 30.4774 74.5086 30.7524C74.5086 31.0224 74.4561 31.2637 74.3511 31.4762C74.2461 31.6887 74.1011 31.8549 73.9161 31.9749C73.7311 32.0949 73.5211 32.1549 73.2861 32.1549ZM77.2761 32.6199C77.6461 32.6199 77.966 32.5461 78.236 32.3987C78.506 32.2512 78.7235 32.0474 78.8885 31.7874L78.4835 31.5174C78.3635 31.7174 78.2048 31.8737 78.0073 31.9862C77.8098 32.0986 77.561 32.1549 77.2611 32.1549C76.8911 32.1549 76.5986 32.0274 76.3836 31.7724C76.1686 31.5174 76.0511 31.2099 76.0311 30.8499H78.9185C78.9235 30.7999 78.926 30.7274 78.926 30.6324C78.926 30.3024 78.8535 30.0037 78.7085 29.7362C78.5635 29.4687 78.3635 29.2574 78.1086 29.1024C77.8535 28.9474 77.5686 28.8699 77.2536 28.8699C76.9186 28.8699 76.6198 28.9499 76.3573 29.1099C76.0948 29.2699 75.8898 29.4924 75.7423 29.7774C75.5948 30.0624 75.5211 30.3849 75.5211 30.7449C75.5211 31.1049 75.5961 31.4274 75.7461 31.7124C75.8961 31.9974 76.1036 32.2199 76.3686 32.3799C76.6336 32.5399 76.9361 32.6199 77.2761 32.6199ZM78.416 30.4299H76.0611C76.1161 30.1149 76.2473 29.8537 76.4548 29.6462C76.6623 29.4387 76.9286 29.3349 77.2536 29.3349C77.5886 29.3349 77.8536 29.4262 78.0485 29.6087C78.2435 29.7912 78.366 30.0649 78.416 30.4299ZM80.186 32.4999V30.8199C80.186 30.5099 80.2423 30.2412 80.3548 30.0137C80.4673 29.7862 80.616 29.6124 80.801 29.4924C80.986 29.3724 81.186 29.3124 81.401 29.3124C81.526 29.3124 81.641 29.3374 81.746 29.3874V28.9224C81.636 28.8874 81.521 28.8699 81.401 28.8699C81.141 28.8699 80.9073 28.9424 80.6998 29.0874C80.4923 29.2324 80.321 29.4349 80.186 29.6949V28.9899H79.676V32.4999H80.186ZM85.916 32.6199C86.326 32.6199 86.6797 32.5174 86.9772 32.3124C87.2747 32.1074 87.5135 31.8099 87.6935 31.4199L87.221 31.1349C87.051 31.4699 86.8672 31.7162 86.6697 31.8737C86.4722 32.0312 86.196 32.1099 85.841 32.1099C85.556 32.1099 85.306 32.0237 85.091 31.8512C84.876 31.6787 84.711 31.4299 84.596 31.1049C84.481 30.7799 84.4235 30.3949 84.4235 29.9499C84.4235 29.2699 84.5498 28.7387 84.8023 28.3562C85.0548 27.9737 85.4035 27.7824 85.8485 27.7824C86.1585 27.7824 86.421 27.8462 86.636 27.9737C86.851 28.1012 87.0385 28.3124 87.1985 28.6074L87.6485 28.3449C87.4785 28.0049 87.2422 27.7412 86.9397 27.5537C86.6372 27.3662 86.2735 27.2724 85.8485 27.2724C85.4335 27.2724 85.0748 27.3787 84.7723 27.5912C84.4698 27.8037 84.2373 28.1112 84.0748 28.5137C83.9123 28.9162 83.831 29.3974 83.831 29.9574C83.831 30.5124 83.9148 30.9887 84.0823 31.3862C84.2498 31.7837 84.4898 32.0887 84.8023 32.3012C85.1148 32.5136 85.486 32.6199 85.916 32.6199ZM89.9585 32.6199C90.2935 32.6199 90.5922 32.5399 90.8547 32.3799C91.1172 32.2199 91.3222 31.9974 91.4697 31.7124C91.6172 31.4274 91.691 31.1049 91.691 30.7449C91.691 30.3849 91.616 30.0624 91.466 29.7774C91.316 29.4924 91.1085 29.2699 90.8435 29.1099C90.5785 28.9499 90.2785 28.8699 89.9435 28.8699C89.6085 28.8699 89.3097 28.9499 89.0472 29.1099C88.7847 29.2699 88.5797 29.4912 88.4322 29.7737C88.2847 30.0562 88.211 30.3774 88.211 30.7374C88.211 31.0974 88.286 31.4212 88.436 31.7087C88.586 31.9962 88.7935 32.2199 89.0585 32.3799C89.3235 32.5399 89.6235 32.6199 89.9585 32.6199ZM89.9435 32.1549C89.7085 32.1549 89.4985 32.0949 89.3135 31.9749C89.1285 31.8549 88.9835 31.6874 88.8785 31.4724C88.7735 31.2574 88.721 31.0124 88.721 30.7374C88.721 30.4674 88.7735 30.2262 88.8785 30.0137C88.9835 29.8012 89.1285 29.6349 89.3135 29.5149C89.4985 29.3949 89.7085 29.3349 89.9435 29.3349C90.1835 29.3349 90.3972 29.3949 90.5847 29.5149C90.7722 29.6349 90.9185 29.8024 91.0235 30.0174C91.1285 30.2324 91.181 30.4749 91.181 30.7449C91.181 31.0149 91.1285 31.2574 91.0235 31.4724C90.9185 31.6874 90.7722 31.8549 90.5847 31.9749C90.3972 32.0949 90.1835 32.1549 89.9435 32.1549ZM92.921 32.4999V30.7449C92.921 30.3149 92.9972 29.9724 93.1497 29.7174C93.3022 29.4624 93.531 29.3349 93.836 29.3349C94.061 29.3349 94.2435 29.4162 94.3834 29.5787C94.5234 29.7412 94.5934 30.0074 94.5934 30.3774V32.4999H95.1034V30.5199C95.1284 30.1549 95.2172 29.8662 95.3697 29.6537C95.5222 29.4412 95.7359 29.3349 96.0109 29.3349C96.2359 29.3349 96.4184 29.4162 96.5584 29.5787C96.6984 29.7412 96.7684 30.0074 96.7684 30.3774V32.4999H97.2784V30.1524C97.2784 29.7524 97.1709 29.4387 96.9559 29.2112C96.7409 28.9837 96.4709 28.8699 96.1459 28.8699C95.8959 28.8699 95.6759 28.9399 95.4859 29.0799C95.2959 29.2199 95.1459 29.4149 95.0359 29.6649C94.9609 29.4099 94.8284 29.2137 94.6384 29.0762C94.4484 28.9387 94.2259 28.8699 93.9709 28.8699C93.7409 28.8699 93.5372 28.9274 93.3597 29.0424C93.1822 29.1574 93.036 29.3224 92.921 29.5374V28.9899H92.411V32.4999H92.921ZM98.7034 33.9999V31.9749C98.8484 32.1799 99.0272 32.3387 99.2397 32.4511C99.4522 32.5636 99.6859 32.6199 99.9409 32.6199C100.276 32.6199 100.575 32.5399 100.837 32.3799C101.1 32.2199 101.305 31.9987 101.452 31.7162C101.6 31.4337 101.673 31.1124 101.673 30.7524C101.673 30.3874 101.598 30.0624 101.448 29.7774C101.298 29.4924 101.091 29.2699 100.826 29.1099C100.561 28.9499 100.261 28.8699 99.9259 28.8699C99.6759 28.8699 99.4459 28.9262 99.2359 29.0387C99.0259 29.1512 98.8484 29.3074 98.7034 29.5074V28.9899H98.1934V33.9999H98.7034ZM99.9409 32.1549C99.7009 32.1549 99.4872 32.0949 99.2997 31.9749C99.1122 31.8549 98.9659 31.6874 98.8609 31.4724C98.7559 31.2574 98.7034 31.0149 98.7034 30.7449C98.7034 30.4749 98.7559 30.2324 98.8609 30.0174C98.9659 29.8024 99.1122 29.6349 99.2997 29.5149C99.4872 29.3949 99.7009 29.3349 99.9409 29.3349C100.176 29.3349 100.386 29.3949 100.571 29.5149C100.756 29.6349 100.901 29.8024 101.006 30.0174C101.111 30.2324 101.163 30.4774 101.163 30.7524C101.163 31.0224 101.111 31.2637 101.006 31.4762C100.901 31.6887 100.756 31.8549 100.571 31.9749C100.386 32.0949 100.176 32.1549 99.9409 32.1549ZM103.923 32.6199C104.173 32.6199 104.403 32.5636 104.613 32.4511C104.823 32.3387 105.001 32.1824 105.146 31.9824V32.4999H105.656V28.9899H105.146V29.5149C105.001 29.3099 104.822 29.1512 104.61 29.0387C104.397 28.9262 104.163 28.8699 103.908 28.8699C103.573 28.8699 103.275 28.9499 103.012 29.1099C102.75 29.2699 102.545 29.4912 102.397 29.7737C102.25 30.0562 102.176 30.3774 102.176 30.7374C102.176 31.1024 102.251 31.4274 102.401 31.7124C102.551 31.9974 102.758 32.2199 103.023 32.3799C103.288 32.5399 103.588 32.6199 103.923 32.6199ZM103.908 32.1549C103.673 32.1549 103.463 32.0949 103.278 31.9749C103.093 31.8549 102.948 31.6874 102.843 31.4724C102.738 31.2574 102.686 31.0124 102.686 30.7374C102.686 30.4674 102.738 30.2262 102.843 30.0137C102.948 29.8012 103.093 29.6349 103.278 29.5149C103.463 29.3949 103.673 29.3349 103.908 29.3349C104.148 29.3349 104.362 29.3949 104.55 29.5149C104.737 29.6349 104.883 29.8024 104.988 30.0174C105.093 30.2324 105.146 30.4749 105.146 30.7449C105.146 31.0149 105.093 31.2574 104.988 31.4724C104.883 31.6874 104.737 31.8549 104.55 31.9749C104.362 32.0949 104.148 32.1549 103.908 32.1549ZM107.111 32.4999V30.7449C107.111 30.3149 107.201 29.9724 107.381 29.7174C107.561 29.4624 107.831 29.3349 108.191 29.3349C108.811 29.3349 109.121 29.6824 109.121 30.3774V32.4999H109.631V30.1524C109.631 29.8874 109.57 29.6574 109.447 29.4624C109.325 29.2674 109.16 29.1199 108.952 29.0199C108.745 28.9199 108.518 28.8699 108.273 28.8699C108.013 28.8699 107.785 28.9312 107.587 29.0537C107.39 29.1762 107.231 29.3499 107.111 29.5749V28.9899H106.601V32.4999H107.111ZM111.626 33.9999L113.523 28.9899H113.043L111.926 31.8999L110.763 28.9899H110.231L111.671 32.5674L111.116 33.9999H111.626Z" fill="#A0A0A0"/>
<path fill-rule="evenodd" clip-rule="evenodd" d="M17.9166 5.41626V29.7488C15.9912 30.9345 13.699 31.9113 11.1663 32.5523C9.07509 33.0824 7.02003 33.3328 5.09915 33.3328C3.24708 33.3328 1.5198 33.1002 0 32.6595V8.32716C0.000816877 8.32716 0.00224641 8.32777 0.00306329 8.32777C0.568955 8.49153 1.16344 8.62676 1.78304 8.73183C2.35628 8.8293 2.95076 8.90092 3.56301 8.94504C4.06376 8.98239 4.57635 9.00106 5.09915 9.00106C7.02085 9.00106 9.07509 8.74989 11.1663 8.22045C13.699 7.57855 15.9912 6.60258 17.9166 5.41626ZM14.3562 11.0023C14.2057 11.0535 14.0544 11.1037 13.9024 11.1527L14.3562 11.1525L14.3562 11.0023Z" fill="#A0A0A0"/>
<path fill-rule="evenodd" clip-rule="evenodd" d="M24.5837 0V26.8747C22.4345 28.1843 19.8758 29.2631 17.0486 29.9712C14.7142 30.5566 12.4202 30.8331 10.2759 30.8331C8.20851 30.8331 6.28038 30.5763 4.58386 30.0895V3.21502C4.58477 3.21502 4.58637 3.2157 4.58728 3.2157C5.21897 3.39657 5.88258 3.54593 6.57423 3.66197C7.21413 3.76963 7.87774 3.84873 8.56118 3.89746C9.12015 3.93871 9.69234 3.95934 10.2759 3.95934C12.4211 3.95934 14.7142 3.68192 17.0486 3.09716C19.8758 2.3882 22.4345 1.31026 24.5837 0Z" fill="#A0A0A0"/>
</svg>
