<svg width="149" height="34" viewBox="0 0 149 34" fill="none" xmlns="http://www.w3.org/2000/svg">
<path d="M51.6817 22.1343C55.9317 22.1343 58.7537 20.1623 58.7537 16.7623C58.7537 13.3501 55.9497 12.2822 53.2578 11.4791L52.9478 11.3875C50.578 10.6924 48.3837 10.1418 48.3837 8.29633C48.3837 6.83433 49.5737 5.91633 51.6477 5.91633C53.4497 5.91633 54.7417 6.66433 55.3197 8.26233L58.0737 7.17433C57.2917 4.79433 54.9457 3.46833 51.6817 3.46833C47.7377 3.46833 45.1877 5.37233 45.1877 8.46633C45.1877 14.6203 55.4897 12.6823 55.4897 17.0003C55.4897 18.6663 54.0277 19.6183 51.7837 19.6183C49.3017 19.6183 47.6357 18.5303 47.0577 16.6943L44.3037 17.7823C45.2557 20.6383 47.9757 22.1343 51.6817 22.1343ZM78.1564 27.8463V3.84233H75.4704V7.17433C74.0424 4.86233 71.6624 3.46833 68.6704 3.46833C63.5704 3.46833 59.9324 7.48033 59.9324 12.8183C59.9324 18.1563 63.6724 22.1343 68.7384 22.1343C71.5604 22.1343 73.8384 20.8763 75.2664 18.8023V27.8463H78.1564ZM69.0784 19.5843C65.4744 19.5843 62.7884 16.6943 62.7884 12.8183C62.7884 8.90833 65.4744 6.01833 69.0784 6.01833C72.7844 6.01833 75.3684 8.84033 75.3684 12.8183C75.3684 16.7963 72.8184 19.5843 69.0784 19.5843ZM88.753 22.1343C91.405 22.1343 93.5471 20.8763 94.737 19.2103V21.7603H97.491V3.84233H94.601V15.0963C94.567 17.3743 92.527 19.5503 89.501 19.5503C86.441 19.5843 84.503 17.5783 84.503 14.5523V3.84233H81.613V14.8923C81.613 19.1423 84.163 22.1343 88.753 22.1343ZM108.87 22.1343C111.896 22.1343 114.242 20.7063 115.602 18.3263V21.7603H118.288V3.84233H115.602V7.31033C114.242 4.99833 111.896 3.63833 108.87 3.63833C103.804 3.63833 100.064 7.48033 100.064 12.7843C100.064 18.1563 103.77 22.1343 108.87 22.1343ZM109.21 19.5843C105.606 19.5843 102.92 16.6943 102.92 12.7843C102.92 8.94233 105.606 6.01833 109.21 6.01833C112.95 6.01833 115.5 8.80633 115.5 12.7843C115.5 16.7963 112.916 19.5843 109.21 19.5843ZM124.872 21.7603V10.9483C124.872 8.39833 127.15 6.18833 130.414 6.15433V3.46833C127.898 3.46833 125.858 4.79433 124.702 6.46033V3.84233H121.982V21.7603H124.872ZM139.413 22.1683C143.663 22.1683 146.145 20.3323 147.471 17.7823L144.955 16.2523C144.071 18.3263 142.439 19.4483 139.515 19.4483C136.217 19.4483 133.599 17.2043 133.089 13.8723H147.981C148.015 13.5323 148.049 12.9203 148.049 12.4103C148.049 7.68433 144.615 3.43433 139.209 3.43433C134.143 3.43433 130.165 7.61633 130.165 12.8183C130.165 18.1563 133.905 22.1683 139.413 22.1683ZM145.091 11.3563H133.123C133.667 7.95633 136.285 5.95033 139.311 5.95033C142.303 5.95033 144.649 7.99033 145.091 11.3563Z" fill="#A0A0A0"/>
<path d="M85.864 32.7035C85.957 32.7035 86.0553 32.6975 86.1589 32.6855C86.2625 32.6736 86.3754 32.6556 86.4976 32.6317V32.321H86.4258C86.0885 32.321 85.8481 32.2804 85.7047 32.1994C85.5612 32.1184 85.4483 31.9663 85.366 31.7432C85.3288 31.6503 85.2783 31.4623 85.2146 31.1794C85.1508 30.8965 85.0738 30.6821 84.9835 30.536C84.9038 30.4031 84.7949 30.2922 84.6568 30.2033C84.5187 30.1143 84.3473 30.0419 84.1428 29.9861C84.5811 29.8905 84.9104 29.7291 85.1309 29.502C85.3514 29.2749 85.4616 28.9847 85.4616 28.6314C85.4616 28.1347 85.3009 27.7662 84.9795 27.5258C84.6581 27.2854 84.164 27.1652 83.4973 27.1652H81.4175V27.4919L81.8797 27.5397L82.0191 27.6553V32.1496L81.8797 32.2652L81.4175 32.305V32.6397H83.3579V32.305L82.8917 32.2652L82.7522 32.1496V30.2092L82.7801 30.2053C82.9554 30.1973 83.0829 30.1933 83.1626 30.1933C83.5372 30.1933 83.8167 30.2571 84.0013 30.3846C84.186 30.5121 84.3327 30.7418 84.4416 31.0738C84.4708 31.1615 84.5094 31.2943 84.5572 31.4723C84.6847 31.9663 84.8454 32.2984 85.0393 32.4684C85.1322 32.5481 85.2458 32.6072 85.3799 32.6457C85.5141 32.6842 85.6754 32.7035 85.864 32.7035ZM83.2025 29.8228C83.1334 29.8228 83.0617 29.8221 82.9873 29.8208C82.9129 29.8194 82.8346 29.8174 82.7522 29.8148V27.5397H83.1467C83.6753 27.5397 84.0578 27.6313 84.2942 27.8146C84.5306 27.9979 84.6488 28.2928 84.6488 28.6992C84.6488 29.0923 84.5339 29.3778 84.3042 29.5558C84.0744 29.7338 83.7072 29.8228 83.2025 29.8228ZM87.9747 32.7114C88.2377 32.7114 88.4993 32.6703 88.7596 32.5879C89.0199 32.5056 89.2709 32.3847 89.5127 32.2253V31.7751C89.2683 31.9371 89.0418 32.0567 88.8333 32.1337C88.6248 32.2107 88.4236 32.2492 88.2297 32.2492C87.81 32.2492 87.4766 32.0998 87.2296 31.801C86.9826 31.5022 86.8591 31.0964 86.8591 30.5838V30.4921H89.5007C89.506 30.4603 89.5093 30.4271 89.5107 30.3925C89.512 30.358 89.5127 30.3075 89.5127 30.2411C89.5127 29.7444 89.3805 29.3519 89.1162 29.0637C88.8519 28.7755 88.494 28.6314 88.0424 28.6314C87.4899 28.6314 87.0377 28.8247 86.6858 29.2112C86.3338 29.5976 86.1578 30.0963 86.1578 30.7073C86.1578 31.3023 86.3258 31.7851 86.6618 32.1556C86.9979 32.5262 87.4355 32.7114 87.9747 32.7114ZM88.7835 30.1495H86.8989C86.9228 29.8174 87.0337 29.5432 87.2316 29.3267C87.4295 29.1102 87.6639 29.002 87.9349 29.002C88.2111 29.002 88.4216 29.0896 88.5664 29.2649C88.7111 29.4403 88.7835 29.6926 88.7835 30.022V30.1495ZM90.9779 32.6955C91.1691 32.6955 91.3743 32.6523 91.5934 32.566C91.8126 32.4797 92.0536 32.3462 92.3166 32.1656L92.4242 32.6397H93.5717V32.3449L93.1414 32.305L93.0019 32.1735V29.8068C93.0019 29.3951 92.905 29.0963 92.7111 28.9103C92.5172 28.7244 92.2064 28.6314 91.7787 28.6314C91.2926 28.6314 90.8962 28.7191 90.5894 28.8944C90.2826 29.0697 90.1292 29.2902 90.1292 29.5558C90.1292 29.6514 90.1471 29.7172 90.183 29.753C90.2188 29.7889 90.2859 29.8068 90.3842 29.8068H90.946V29.1215C91.0549 29.079 91.1598 29.0471 91.2607 29.0259C91.3617 29.0046 91.464 28.994 91.5675 28.994C91.8438 28.994 92.0377 29.0604 92.1493 29.1932C92.2608 29.326 92.3166 29.5638 92.3166 29.9064V30.1654C91.2993 30.4098 90.6478 30.6316 90.3623 30.8308C90.0767 31.03 89.934 31.3036 89.934 31.6516C89.934 31.965 90.0289 32.2174 90.2188 32.4086C90.4088 32.5999 90.6618 32.6955 90.9779 32.6955ZM91.3046 32.2572C91.1054 32.2572 90.9466 32.1968 90.8284 32.0759C90.7102 31.9551 90.6511 31.7924 90.6511 31.5878C90.6511 31.3328 90.7581 31.127 90.9719 30.9703C91.1857 30.8135 91.634 30.6409 92.3166 30.4523V31.8906C92.1015 32.0128 91.9109 32.1045 91.7448 32.1656C91.5788 32.2267 91.4321 32.2572 91.3046 32.2572ZM95.5947 32.6397V32.3449L95.1285 32.305L94.9811 32.1735V26.6353H94.6703L93.6742 26.9261V27.1811H94.3037V32.1735L94.1643 32.305L93.6822 32.3449V32.6397H95.5947ZM101.952 32.6397V31.3089H101.529L101.39 32.1337L101.274 32.2652H99.0869V29.9781H100.426L100.541 30.1017L100.621 30.6913H101.007V28.8944H100.621L100.541 29.4881L100.426 29.6036H99.0869V27.5397H100.975L101.087 27.6632L101.203 28.3565H101.661V27.1652H97.7521V27.4919L98.2143 27.5397L98.3537 27.6553V32.1496L98.2143 32.2652L97.7521 32.305V32.6397H101.952ZM103.313 32.7114C103.791 32.7114 104.165 32.6032 104.435 32.3867C104.704 32.1702 104.839 31.8707 104.839 31.4882C104.839 31.3421 104.813 31.2087 104.76 31.0878C104.706 30.9669 104.629 30.8667 104.528 30.787C104.39 30.6728 104.167 30.5453 103.859 30.4045C103.771 30.3646 103.706 30.3341 103.664 30.3128C103.393 30.1827 103.21 30.0645 103.114 29.9582C103.018 29.852 102.971 29.7231 102.971 29.5717C102.971 29.3858 103.03 29.241 103.15 29.1374C103.269 29.0338 103.435 28.9821 103.648 28.9821C103.746 28.9821 103.844 28.9967 103.943 29.0259C104.041 29.0551 104.145 29.0989 104.254 29.1574L104.317 29.7351H104.72V28.8107C104.582 28.7523 104.433 28.7078 104.275 28.6772C104.117 28.6467 103.947 28.6314 103.763 28.6314C103.304 28.6314 102.948 28.731 102.696 28.9303C102.443 29.1295 102.317 29.411 102.317 29.7749C102.317 30.014 102.391 30.2146 102.538 30.3766C102.686 30.5386 102.964 30.7113 103.373 30.8946C103.734 31.0592 103.963 31.1954 104.058 31.3029C104.154 31.4105 104.202 31.5467 104.202 31.7113C104.202 31.9079 104.132 32.0666 103.993 32.1875C103.853 32.3083 103.668 32.3688 103.437 32.3688C103.32 32.3688 103.204 32.3528 103.088 32.321C102.973 32.2891 102.858 32.2399 102.743 32.1735L102.644 31.4803H102.253V32.5401C102.405 32.5985 102.57 32.6417 102.749 32.6696C102.929 32.6975 103.117 32.7114 103.313 32.7114ZM106.468 32.6636C106.635 32.6636 106.809 32.6483 106.99 32.6178C107.17 32.5872 107.354 32.5428 107.54 32.4843V32.1815C107.439 32.2054 107.341 32.2227 107.247 32.2333C107.152 32.2439 107.061 32.2492 106.974 32.2492C106.719 32.2492 106.542 32.1888 106.444 32.0679C106.346 31.9471 106.296 31.71 106.296 31.3567V29.2052H107.54V28.8227H106.296V27.9541H105.994L105.643 28.7151L105.105 28.9502V29.2052H105.619V31.8388C105.619 32.1523 105.682 32.3681 105.808 32.4863C105.935 32.6045 106.154 32.6636 106.468 32.6636ZM108.742 32.6955C108.933 32.6955 109.138 32.6523 109.357 32.566C109.577 32.4797 109.818 32.3462 110.081 32.1656L110.188 32.6397H111.336V32.3449L110.905 32.305L110.766 32.1735V29.8068C110.766 29.3951 110.669 29.0963 110.475 28.9103C110.281 28.7244 109.97 28.6314 109.543 28.6314C109.057 28.6314 108.66 28.7191 108.353 28.8944C108.047 29.0697 107.893 29.2902 107.893 29.5558C107.893 29.6514 107.911 29.7172 107.947 29.753C107.983 29.7889 108.05 29.8068 108.148 29.8068H108.71V29.1215C108.819 29.079 108.924 29.0471 109.025 29.0259C109.126 29.0046 109.228 28.994 109.331 28.994C109.608 28.994 109.802 29.0604 109.913 29.1932C110.025 29.326 110.081 29.5638 110.081 29.9064V30.1654C109.063 30.4098 108.412 30.6316 108.126 30.8308C107.841 31.03 107.698 31.3036 107.698 31.6516C107.698 31.965 107.793 32.2174 107.983 32.4086C108.173 32.5999 108.426 32.6955 108.742 32.6955ZM109.069 32.2572C108.869 32.2572 108.711 32.1968 108.592 32.0759C108.474 31.9551 108.415 31.7924 108.415 31.5878C108.415 31.3328 108.522 31.127 108.736 30.9703C108.95 30.8135 109.398 30.6409 110.081 30.4523V31.8906C109.865 32.0128 109.675 32.1045 109.509 32.1656C109.343 32.2267 109.196 32.2572 109.069 32.2572ZM112.785 32.6636C112.952 32.6636 113.126 32.6483 113.307 32.6178C113.487 32.5872 113.671 32.5428 113.857 32.4843V32.1815C113.756 32.2054 113.658 32.2227 113.564 32.2333C113.47 32.2439 113.379 32.2492 113.291 32.2492C113.036 32.2492 112.859 32.1888 112.761 32.0679C112.663 31.9471 112.614 31.71 112.614 31.3567V29.2052H113.857V28.8227H112.614V27.9541H112.311L111.96 28.7151L111.422 28.9502V29.2052H111.936V31.8388C111.936 32.1523 111.999 32.3681 112.125 32.4863C112.252 32.6045 112.471 32.6636 112.785 32.6636ZM115.792 32.7114C116.055 32.7114 116.317 32.6703 116.577 32.5879C116.837 32.5056 117.088 32.3847 117.33 32.2253V31.7751C117.086 31.9371 116.859 32.0567 116.651 32.1337C116.442 32.2107 116.241 32.2492 116.047 32.2492C115.627 32.2492 115.294 32.0998 115.047 31.801C114.8 31.5022 114.676 31.0964 114.676 30.5838V30.4921H117.318C117.323 30.4603 117.327 30.4271 117.328 30.3925C117.329 30.358 117.33 30.3075 117.33 30.2411C117.33 29.7444 117.198 29.3519 116.934 29.0637C116.669 28.7755 116.311 28.6314 115.86 28.6314C115.307 28.6314 114.855 28.8247 114.503 29.2112C114.151 29.5976 113.975 30.0963 113.975 30.7073C113.975 31.3023 114.143 31.7851 114.479 32.1556C114.815 32.5262 115.253 32.7114 115.792 32.7114ZM116.601 30.1495H114.716C114.74 29.8174 114.851 29.5432 115.049 29.3267C115.247 29.1102 115.481 29.002 115.752 29.002C116.028 29.002 116.239 29.0896 116.384 29.2649C116.528 29.4403 116.601 29.6926 116.601 30.022V30.1495ZM121.364 32.7393C122.002 32.7393 122.513 32.5886 122.898 32.2871C123.283 31.9856 123.476 31.5892 123.476 31.0978C123.476 30.9198 123.446 30.7551 123.386 30.6037C123.326 30.4523 123.237 30.3181 123.117 30.2013C122.907 29.9941 122.565 29.7975 122.089 29.6116C121.999 29.5771 121.931 29.5505 121.886 29.5319C121.403 29.3274 121.091 29.1527 120.952 29.0079C120.812 28.8632 120.742 28.6806 120.742 28.4601C120.742 28.1573 120.842 27.9176 121.041 27.7409C121.241 27.5643 121.51 27.476 121.85 27.476C121.994 27.476 122.126 27.4899 122.249 27.5178C122.371 27.5457 122.484 27.5888 122.587 27.6473L122.707 27.7828L122.83 28.5597H123.257V27.2967C123.018 27.2196 122.783 27.1619 122.553 27.1233C122.324 27.0848 122.094 27.0656 121.866 27.0656C121.298 27.0656 120.841 27.2097 120.497 27.4979C120.153 27.7861 119.981 28.1639 119.981 28.6314C119.981 28.9635 120.072 29.2337 120.252 29.4422C120.433 29.6508 120.802 29.8759 121.36 30.1176C121.405 30.1362 121.47 30.1641 121.555 30.2013C122.336 30.5333 122.727 30.9078 122.727 31.3249C122.727 31.625 122.616 31.8634 122.394 32.0401C122.172 32.2167 121.871 32.305 121.492 32.305C121.311 32.305 121.144 32.2891 120.989 32.2572C120.835 32.2253 120.699 32.1788 120.579 32.1178L120.472 31.9783L120.376 31.042H119.894V32.4763C120.088 32.5613 120.31 32.6264 120.561 32.6716C120.812 32.7167 121.08 32.7393 121.364 32.7393ZM125.865 32.7114C126.418 32.7114 126.873 32.5208 127.23 32.1397C127.587 31.7585 127.766 31.2691 127.766 30.6714C127.766 30.0738 127.588 29.5844 127.232 29.2032C126.876 28.822 126.42 28.6314 125.865 28.6314C125.308 28.6314 124.853 28.8213 124.501 29.2012C124.149 29.581 123.973 30.0711 123.973 30.6714C123.973 31.2717 124.15 31.7618 124.505 32.1417C124.859 32.5215 125.313 32.7114 125.865 32.7114ZM125.865 32.3608C125.528 32.3608 125.256 32.2074 125.049 31.9006C124.841 31.5938 124.738 31.1841 124.738 30.6714C124.738 30.1588 124.841 29.749 125.047 29.4422C125.252 29.1354 125.525 28.9821 125.865 28.9821C126.205 28.9821 126.48 29.1361 126.688 29.4442C126.897 29.7524 127.001 30.1614 127.001 30.6714C127.001 31.1867 126.897 31.5971 126.69 31.9026C126.483 32.2081 126.208 32.3608 125.865 32.3608ZM129.936 32.6397V32.3449L129.47 32.305L129.323 32.1735V26.6353H129.012L128.016 26.9261V27.1811H128.645V32.1735L128.506 32.305L128.024 32.3449V32.6397H129.936ZM131.712 32.7194C131.906 32.7194 132.111 32.6756 132.328 32.5879C132.544 32.5003 132.78 32.3648 133.035 32.1815V32.6397H134.242V32.3449L133.86 32.305L133.712 32.1735V28.6314H133.402L132.453 28.9342V29.1892H133.035V31.9544C132.865 32.0367 132.702 32.0978 132.547 32.1377C132.392 32.1775 132.238 32.1974 132.087 32.1974C131.816 32.1974 131.617 32.1277 131.489 31.9883C131.362 31.8488 131.298 31.6303 131.298 31.3328V28.6314H130.987L130.039 28.9342V29.1892H130.621V31.4723C130.621 31.876 130.714 32.1848 130.901 32.3987C131.089 32.6125 131.359 32.7194 131.712 32.7194ZM135.763 32.6636C135.931 32.6636 136.105 32.6483 136.285 32.6178C136.466 32.5872 136.649 32.5428 136.835 32.4843V32.1815C136.734 32.2054 136.637 32.2227 136.542 32.2333C136.448 32.2439 136.357 32.2492 136.269 32.2492C136.014 32.2492 135.838 32.1888 135.739 32.0679C135.641 31.9471 135.592 31.71 135.592 31.3567V29.2052H136.835V28.8227H135.592V27.9541H135.289L134.939 28.7151L134.401 28.9502V29.2052H134.915V31.8388C134.915 32.1523 134.978 32.3681 135.104 32.4863C135.23 32.6045 135.45 32.6636 135.763 32.6636ZM137.906 27.8027C138.039 27.8027 138.151 27.7575 138.243 27.6672C138.334 27.5769 138.38 27.4667 138.38 27.3365C138.38 27.2063 138.334 27.0948 138.243 27.0018C138.151 26.9088 138.039 26.8624 137.906 26.8624C137.776 26.8624 137.665 26.9082 137.573 26.9998C137.481 27.0915 137.436 27.2037 137.436 27.3365C137.436 27.4667 137.481 27.5769 137.573 27.6672C137.665 27.7575 137.776 27.8027 137.906 27.8027ZM138.77 32.6397V32.3449L138.332 32.305L138.193 32.1735V28.6753H137.874L136.938 28.9661V29.2211H137.507V32.1735L137.368 32.305L136.938 32.3449V32.6397H138.77ZM140.857 32.7114C141.41 32.7114 141.865 32.5208 142.222 32.1397C142.579 31.7585 142.758 31.2691 142.758 30.6714C142.758 30.0738 142.58 29.5844 142.224 29.2032C141.868 28.822 141.412 28.6314 140.857 28.6314C140.299 28.6314 139.844 28.8213 139.493 29.2012C139.141 29.581 138.965 30.0711 138.965 30.6714C138.965 31.2717 139.142 31.7618 139.497 32.1417C139.851 32.5215 140.305 32.7114 140.857 32.7114ZM140.857 32.3608C140.52 32.3608 140.248 32.2074 140.04 31.9006C139.833 31.5938 139.73 31.1841 139.73 30.6714C139.73 30.1588 139.833 29.749 140.038 29.4422C140.244 29.1354 140.517 28.9821 140.857 28.9821C141.197 28.9821 141.471 29.1361 141.68 29.4442C141.888 29.7524 141.993 30.1614 141.993 30.6714C141.993 31.1867 141.889 31.5971 141.682 31.9026C141.475 32.2081 141.2 32.3608 140.857 32.3608ZM144.821 32.6397V32.3449L144.43 32.305L144.291 32.1735V29.4403C144.466 29.3499 144.629 29.2829 144.781 29.239C144.932 29.1952 145.073 29.1733 145.203 29.1733C145.501 29.1733 145.712 29.2371 145.839 29.3646C145.965 29.4921 146.028 29.7085 146.028 30.014V32.1735L145.888 32.305L145.498 32.3449V32.6397H147.283V32.3449L146.845 32.305L146.705 32.1735V29.8746C146.705 29.4708 146.611 29.1627 146.422 28.9502C146.234 28.7377 145.961 28.6314 145.605 28.6314C145.454 28.6314 145.279 28.6679 145.08 28.741C144.88 28.814 144.617 28.9409 144.291 29.1215V28.6753H143.98L143.032 28.9661V29.2211H143.613V32.1735L143.474 32.305L143.032 32.3449V32.6397H144.821Z" fill="#A0A0A0"/>
<path fill-rule="evenodd" clip-rule="evenodd" d="M0 0H34V34H0V0ZM25.305 8.69464L8.69319 8.69286V25.3063L8.68768 25.3114L8.68784 25.3126H25.3126L25.3113 8.68873L25.3105 8.68859L25.305 8.69464Z" fill="#A0A0A0"/>
</svg>
