<svg width="136" height="34" viewBox="0 0 136 34" fill="none" xmlns="http://www.w3.org/2000/svg">
<path d="M44.285 20.8382V9.56084C44.285 8.90057 44.2322 7.54922 44.1265 5.50679L45.5395 10.4588L48.8937 20.8382H51.6668L55.021 10.4588C55.0709 10.3033 55.1253 10.1278 55.1842 9.93243L55.2571 9.68839C55.5449 8.71625 55.9283 7.32238 56.4075 5.50679C56.3283 7.44358 56.2865 8.53963 56.2821 8.79493C56.2777 9.05023 56.2755 9.30554 56.2755 9.56084V20.8382H59.7353V2.23186H54.5456L51.1254 13.1527L50.2935 16.1371L49.6596 13.6413L49.3691 12.6377L46.0413 2.23186H40.8252V20.8382H44.285ZM66.7107 21.1023C68.806 21.1023 70.373 20.1648 71.4119 18.2896H71.4911C71.5791 19.1788 71.8454 19.8522 72.29 20.31C72.7346 20.7678 73.4235 20.9967 74.3567 20.9967C74.6208 20.9967 74.8519 20.9879 75.0499 20.9703C75.248 20.9527 75.4351 20.9307 75.6112 20.9043C75.7872 20.8779 75.9633 20.8426 76.1394 20.7986C76.3155 20.7546 76.5135 20.7062 76.7336 20.6534V18.6461C76.4695 18.699 76.1966 18.7254 75.9149 18.7254C75.4923 18.7254 75.1908 18.5735 75.0103 18.2698C74.8299 17.9661 74.7396 17.4136 74.7396 16.6125V11.4096C74.7396 9.77213 74.251 8.50881 73.2738 7.61965C72.2966 6.73049 70.9057 6.28591 69.1009 6.28591C67.3138 6.28591 65.903 6.64466 64.8686 7.36215C63.8342 8.07964 63.1981 9.13387 62.9604 10.5248L66.8296 10.7097C66.9088 9.98782 67.1091 9.47061 67.4304 9.15808C67.7518 8.84555 68.2558 8.68929 68.9425 8.68929C69.682 8.68929 70.2146 8.91598 70.5403 9.36936C70.866 9.82275 71.0289 10.516 71.0289 11.4492V12.1755L67.9521 12.2283C66.1209 12.2459 64.7233 12.6421 63.7593 13.4168C62.7954 14.1915 62.3134 15.3184 62.3134 16.7974C62.3134 18.1619 62.7007 19.2206 63.4754 19.9733C64.2501 20.726 65.3286 21.1023 66.7107 21.1023ZM67.8992 18.5141C67.3798 18.5141 66.9638 18.349 66.6513 18.0189C66.3388 17.6888 66.1825 17.1847 66.1825 16.5069C66.1825 15.9787 66.2772 15.5561 66.4664 15.2392C66.6557 14.9222 66.9308 14.6867 67.2918 14.5327C67.6527 14.3786 68.2646 14.284 69.1273 14.2488L71.0289 14.2223V14.9486C71.0289 15.5737 70.8924 16.1657 70.6195 16.7248C70.3466 17.2838 69.9703 17.7218 69.4905 18.0387C69.0107 18.3556 68.4803 18.5141 67.8992 18.5141ZM82.1376 20.8382V13.8262C82.1376 12.356 82.3951 11.2467 82.9102 10.4984C83.4252 9.75012 84.1449 9.37597 85.0692 9.37597C85.527 9.37597 86.0552 9.44199 86.6539 9.57405V6.47078C86.3634 6.33873 85.9804 6.2727 85.505 6.2727C84.924 6.2727 84.4398 6.37174 84.0524 6.56982C83.6651 6.76791 83.3305 7.07163 83.0488 7.481C82.7671 7.89036 82.4458 8.59685 82.0848 9.60046H82.032C82.032 9.33635 82.01 8.80153 81.966 7.99601C81.9219 7.19048 81.8867 6.70848 81.8603 6.55002H78.3213C78.3477 6.95498 78.3719 7.41937 78.3939 7.94318C78.4159 8.467 78.4269 9.12066 78.4269 9.90418V20.8382H82.1376ZM92.5861 21.0759C93.757 21.0759 94.8002 20.9263 95.7158 20.6269V18.3292C95.1788 18.4525 94.765 18.5141 94.4745 18.5141C93.9198 18.5141 93.5105 18.349 93.2464 18.0189C92.9823 17.6888 92.8502 17.1759 92.8502 16.4805V9.05904H95.5573V6.55002H92.8502V3.19585H90.5261L89.364 6.55002H87.37V9.05904H89.1791V17.4841C89.1791 18.6902 89.474 19.5903 90.0639 20.1846C90.6537 20.7788 91.4945 21.0759 92.5861 21.0759ZM101.622 3.97497V1.24146H97.9109V3.97497H101.622ZM101.622 20.8382V6.55002H97.9109V20.8382H101.622ZM109.112 20.8382V13.1791C109.112 11.973 109.387 10.9848 109.937 10.2145C110.488 9.4442 111.212 9.05904 112.11 9.05904C113.809 9.05904 114.658 10.3135 114.658 12.8226V20.8382H118.356V11.7661C118.356 9.97021 117.951 8.60565 117.141 7.67247C116.331 6.73929 115.169 6.2727 113.655 6.2727C112.607 6.2727 111.705 6.5192 110.948 7.01221C110.19 7.50521 109.561 8.29753 109.059 9.38917H109.006C109.006 9.11626 108.984 8.61666 108.94 7.89036C108.896 7.16407 108.861 6.71728 108.835 6.55002H105.296C105.322 6.93737 105.346 7.37535 105.368 7.86395C105.39 8.35255 105.401 8.97981 105.401 9.74572V20.8382H109.112ZM128.21 21.1023C130.481 21.1023 132.26 20.4443 133.545 19.1281C134.83 17.812 135.473 15.9963 135.473 13.6809C135.473 11.2951 134.859 9.4662 133.631 8.19409C132.403 6.92197 130.622 6.28591 128.289 6.28591C126.009 6.28591 124.235 6.94398 122.967 8.26011C121.7 9.57625 121.066 11.3832 121.066 13.6809C121.066 15.9875 121.7 17.801 122.967 19.1215C124.235 20.4421 125.983 21.1023 128.21 21.1023ZM128.17 18.5669C127.132 18.5669 126.337 18.1509 125.787 17.319C125.237 16.4871 124.962 15.2744 124.962 13.6809C124.962 10.45 126.088 8.83455 128.342 8.83455C129.399 8.83455 130.204 9.2175 130.759 9.98341C131.313 10.7493 131.591 11.9818 131.591 13.6809C131.591 16.9382 130.451 18.5669 128.17 18.5669Z" fill="#A0A0A0"/>
<path opacity="0.595853" d="M77.6082 32.4897C77.8899 32.4897 78.1508 32.4447 78.391 32.3546C78.6311 32.2646 78.8332 32.1445 78.9971 31.9944C79.1611 31.8443 79.2973 31.6919 79.4058 31.5372C79.5143 31.3825 79.6033 31.222 79.6725 31.0557L78.8551 30.7994C78.7535 31.0534 78.5907 31.2682 78.3667 31.4437C78.1427 31.6192 77.8853 31.7069 77.5943 31.7069C77.1463 31.7069 76.7884 31.5199 76.5206 31.1458C76.2527 30.7717 76.1188 30.2637 76.1188 29.6218C76.1188 28.9891 76.2515 28.4845 76.5171 28.1081C76.7826 27.7317 77.1417 27.5435 77.5943 27.5435C78.07 27.5435 78.4556 27.8091 78.7512 28.3402L79.534 28.0839C79.3723 27.7098 79.1264 27.3958 78.7962 27.1417C78.466 26.8877 78.07 26.7607 77.6082 26.7607C76.8923 26.7607 76.3081 27.0182 75.8555 27.5331C75.4029 28.0481 75.1766 28.7443 75.1766 29.6218C75.1766 30.5131 75.4064 31.2139 75.8659 31.7242C76.3254 32.2346 76.9062 32.4897 77.6082 32.4897ZM81.9239 32.4897C82.201 32.4897 82.4493 32.4435 82.6686 32.3512C82.888 32.2588 83.0646 32.1399 83.1986 31.9944C83.3325 31.8489 83.4433 31.6804 83.5311 31.4887C83.6188 31.297 83.68 31.1088 83.7147 30.9241C83.7493 30.7394 83.7666 30.5547 83.7666 30.3699C83.7666 29.7742 83.6096 29.2708 83.2956 28.8597C82.9815 28.4487 82.5243 28.2432 81.9239 28.2432C81.3189 28.2432 80.8594 28.4487 80.5454 28.8597C80.2313 29.2708 80.0743 29.7742 80.0743 30.3699C80.0743 30.5639 80.0916 30.7544 80.1263 30.9414C80.1609 31.1285 80.2233 31.3178 80.3133 31.5095C80.4034 31.7011 80.5165 31.8674 80.6528 32.0083C80.789 32.1491 80.9668 32.2646 81.1862 32.3546C81.4055 32.4447 81.6515 32.4897 81.9239 32.4897ZM81.9239 31.7416C81.6699 31.7416 81.4483 31.6284 81.2589 31.4021C81.0696 31.1758 80.9749 30.8318 80.9749 30.3699C80.9749 29.8989 81.0707 29.5513 81.2624 29.3273C81.454 29.1034 81.6745 28.9914 81.9239 28.9914C82.1733 28.9914 82.3927 29.1034 82.582 29.3273C82.7714 29.5513 82.8661 29.8989 82.8661 30.3699C82.8661 30.8318 82.7714 31.1758 82.582 31.4021C82.3927 31.6284 82.1733 31.7416 81.9239 31.7416ZM85.4361 32.365V26.7053H84.5633V32.365H85.4361ZM88.0824 32.4897C88.3595 32.4897 88.6077 32.4435 88.8271 32.3512C89.0465 32.2588 89.2231 32.1399 89.357 31.9944C89.491 31.8489 89.6018 31.6804 89.6896 31.4887C89.7773 31.297 89.8385 31.1088 89.8731 30.9241C89.9078 30.7394 89.9251 30.5547 89.9251 30.3699C89.9251 29.7742 89.7681 29.2708 89.454 28.8597C89.14 28.4487 88.6828 28.2432 88.0824 28.2432C87.4774 28.2432 87.0179 28.4487 86.7038 28.8597C86.3898 29.2708 86.2328 29.7742 86.2328 30.3699C86.2328 30.5639 86.2501 30.7544 86.2847 30.9414C86.3194 31.1285 86.3817 31.3178 86.4718 31.5095C86.5618 31.7011 86.675 31.8674 86.8112 32.0083C86.9475 32.1491 87.1253 32.2646 87.3446 32.3546C87.564 32.4447 87.8099 32.4897 88.0824 32.4897ZM88.0824 31.7416C87.8284 31.7416 87.6067 31.6284 87.4174 31.4021C87.228 31.1758 87.1333 30.8318 87.1333 30.3699C87.1333 29.8989 87.2292 29.5513 87.4208 29.3273C87.6125 29.1034 87.833 28.9914 88.0824 28.9914C88.3318 28.9914 88.5512 29.1034 88.7405 29.3273C88.9299 29.5513 89.0245 29.8989 89.0245 30.3699C89.0245 30.8318 88.9299 31.1758 88.7405 31.4021C88.5512 31.6284 88.3318 31.7416 88.0824 31.7416ZM91.5253 32.365V30.3284C91.5253 29.9404 91.605 29.6298 91.7643 29.3966C91.9237 29.1634 92.1534 29.0468 92.4536 29.0468C92.6245 29.0468 92.7977 29.0745 92.9732 29.1299V28.3333C92.8392 28.2732 92.666 28.2432 92.4536 28.2432C92.2273 28.2432 92.0322 28.2986 91.8682 28.4095C91.7043 28.5203 91.5784 28.6496 91.4907 28.7974V28.3679H90.6455V32.365H91.5253ZM94.8643 32.4897C95.3677 32.4897 95.7568 32.3754 96.0316 32.1468C96.3064 31.9182 96.4438 31.6399 96.4438 31.3121C96.4438 30.781 96.0328 30.3838 95.2107 30.1205C95.1876 30.1113 95.1507 30.0998 95.0999 30.0859C94.9059 30.0212 94.7558 29.9681 94.6496 29.9266C94.5434 29.885 94.4406 29.8192 94.3413 29.7291C94.242 29.6391 94.1924 29.5363 94.1924 29.4209C94.1924 29.2823 94.249 29.1703 94.3621 29.0849C94.4753 28.9995 94.638 28.9567 94.8505 28.9567C95.2384 28.9567 95.5686 29.1438 95.8411 29.5179L96.423 29.1646C96.2798 28.8967 96.0628 28.6762 95.7718 28.503C95.4809 28.3298 95.1715 28.2432 94.8436 28.2432C94.4048 28.2432 94.0377 28.3494 93.7421 28.5619C93.4465 28.7743 93.2987 29.056 93.2987 29.407C93.2987 29.5871 93.3311 29.7453 93.3957 29.8815C93.4604 30.0178 93.5551 30.1309 93.6798 30.221C93.8044 30.311 93.9234 30.3826 94.0365 30.4357C94.1497 30.4888 94.2894 30.5431 94.4556 30.5985C94.4741 30.6031 94.5041 30.6124 94.5457 30.6262C94.7766 30.7001 94.9498 30.759 95.0652 30.8029C95.1807 30.8468 95.2904 30.9126 95.3943 31.0003C95.4982 31.0881 95.5502 31.1897 95.5502 31.3051C95.5502 31.4483 95.4867 31.5626 95.3596 31.648C95.2326 31.7335 95.0606 31.7762 94.8436 31.7762C94.4002 31.7762 94.04 31.573 93.7629 31.1666L93.1325 31.5337C93.2941 31.8293 93.5262 32.0625 93.8287 32.2334C94.1312 32.4043 94.4764 32.4897 94.8643 32.4897ZM100.482 32.4897C100.76 32.4897 101.008 32.4435 101.227 32.3512C101.447 32.2588 101.623 32.1399 101.757 31.9944C101.891 31.8489 102.002 31.6804 102.09 31.4887C102.177 31.297 102.239 31.1088 102.273 30.9241C102.308 30.7394 102.325 30.5547 102.325 30.3699C102.325 29.7742 102.168 29.2708 101.854 28.8597C101.54 28.4487 101.083 28.2432 100.482 28.2432C99.8775 28.2432 99.418 28.4487 99.1039 28.8597C98.7899 29.2708 98.6329 29.7742 98.6329 30.3699C98.6329 30.5639 98.6502 30.7544 98.6848 30.9414C98.7194 31.1285 98.7818 31.3178 98.8718 31.5095C98.9619 31.7011 99.0751 31.8674 99.2113 32.0083C99.3475 32.1491 99.5253 32.2646 99.7447 32.3546C99.9641 32.4447 100.21 32.4897 100.482 32.4897ZM100.482 31.7416C100.228 31.7416 100.007 31.6284 99.8174 31.4021C99.6281 31.1758 99.5334 30.8318 99.5334 30.3699C99.5334 29.8989 99.6292 29.5513 99.8209 29.3273C100.013 29.1034 100.233 28.9914 100.482 28.9914C100.732 28.9914 100.951 29.1034 101.141 29.3273C101.33 29.5513 101.425 29.8989 101.425 30.3699C101.425 30.8318 101.33 31.1758 101.141 31.4021C100.951 31.6284 100.732 31.7416 100.482 31.7416ZM104.23 32.365V29.1161H105.061V28.3679H104.23V28.0007C104.23 27.8068 104.264 27.6659 104.331 27.5782C104.398 27.4904 104.503 27.4466 104.646 27.4466H105.152V26.7053H104.521C104.147 26.7053 103.857 26.8081 103.652 27.0136C103.446 27.2191 103.343 27.5274 103.343 27.9384V28.3679H102.734V29.1161H103.343V32.365H104.23ZM107.618 33.9999C107.964 33.9999 108.254 33.9168 108.487 33.7505C108.72 33.5842 108.911 33.2979 109.059 32.8915L110.714 28.3679H109.758L109.128 30.4253C108.98 30.9564 108.895 31.2636 108.872 31.3467H108.844C108.784 31.1112 108.696 30.804 108.581 30.4253L107.895 28.3679H106.932L108.428 32.268L108.297 32.6629C108.218 32.8846 108.113 33.0404 107.981 33.1305C107.85 33.2206 107.68 33.2656 107.472 33.2656H107.348V33.9999H107.618ZM112.862 32.4897C113.139 32.4897 113.387 32.4435 113.606 32.3512C113.826 32.2588 114.002 32.1399 114.136 31.9944C114.27 31.8489 114.381 31.6804 114.469 31.4887C114.557 31.297 114.618 31.1088 114.652 30.9241C114.687 30.7394 114.704 30.5547 114.704 30.3699C114.704 29.7742 114.547 29.2708 114.233 28.8597C113.919 28.4487 113.462 28.2432 112.862 28.2432C112.257 28.2432 111.797 28.4487 111.483 28.8597C111.169 29.2708 111.012 29.7742 111.012 30.3699C111.012 30.5639 111.029 30.7544 111.064 30.9414C111.099 31.1285 111.161 31.3178 111.251 31.5095C111.341 31.7011 111.454 31.8674 111.591 32.0083C111.727 32.1491 111.905 32.2646 112.124 32.3546C112.343 32.4447 112.589 32.4897 112.862 32.4897ZM112.862 31.7416C112.608 31.7416 112.386 31.6284 112.197 31.4021C112.007 31.1758 111.913 30.8318 111.913 30.3699C111.913 29.8989 112.009 29.5513 112.2 29.3273C112.392 29.1034 112.612 28.9914 112.862 28.9914C113.111 28.9914 113.331 29.1034 113.52 29.3273C113.709 29.5513 113.804 29.8989 113.804 30.3699C113.804 30.8318 113.709 31.1758 113.52 31.4021C113.331 31.6284 113.111 31.7416 112.862 31.7416ZM116.72 32.4897C116.993 32.4897 117.22 32.4274 117.403 32.3027C117.585 32.178 117.709 32.044 117.773 31.9009H117.78V32.365H118.625V28.3679H117.753V30.6055C117.753 30.9149 117.679 31.1816 117.531 31.4056C117.383 31.6296 117.178 31.7416 116.914 31.7416C116.476 31.7416 116.256 31.4298 116.256 30.8064V28.3679H115.376V30.9172C115.376 31.2174 115.418 31.476 115.501 31.6931C115.584 31.9101 115.695 32.0729 115.834 32.1814C115.972 32.29 116.114 32.3685 116.26 32.417C116.405 32.4655 116.559 32.4897 116.72 32.4897ZM120.461 32.365V30.3284C120.461 29.9404 120.541 29.6298 120.7 29.3966C120.859 29.1634 121.089 29.0468 121.389 29.0468C121.56 29.0468 121.733 29.0745 121.909 29.1299V28.3333C121.775 28.2732 121.602 28.2432 121.389 28.2432C121.163 28.2432 120.968 28.2986 120.804 28.4095C120.64 28.5203 120.514 28.6496 120.426 28.7974V28.3679H119.581V32.365H120.461ZM125.047 32.365V26.7053H124.174V32.365H125.047ZM127.063 27.7721V26.8092H126.121V27.7721H127.063ZM127.028 32.365V28.3679H126.162V32.365H127.028ZM129.252 32.365V29.1161H130.083V28.3679H129.252V28.0007C129.252 27.8068 129.285 27.6659 129.352 27.5782C129.419 27.4904 129.524 27.4466 129.668 27.4466H130.173V26.7053H129.543C129.169 26.7053 128.879 26.8081 128.674 27.0136C128.468 27.2191 128.365 27.5274 128.365 27.9384V28.3679H127.756V29.1161H128.365V32.365H129.252ZM132.321 32.4897C132.755 32.4897 133.118 32.3904 133.408 32.1918C133.699 31.9932 133.91 31.7462 134.039 31.4506L133.305 31.2012C133.217 31.3721 133.089 31.5118 132.92 31.6203C132.752 31.7289 132.556 31.7831 132.335 31.7831C132.016 31.7831 131.766 31.6734 131.583 31.4541C131.401 31.2347 131.309 30.9726 131.309 30.6678H134.08C134.094 30.5523 134.101 30.4346 134.101 30.3145C134.101 29.7003 133.93 29.2015 133.589 28.8182C133.247 28.4349 132.813 28.2432 132.286 28.2432C131.75 28.2432 131.306 28.4337 130.953 28.8147C130.599 29.1957 130.423 29.7072 130.423 30.3491C130.423 31.0003 130.599 31.5199 130.953 31.9078C131.306 32.2957 131.762 32.4897 132.321 32.4897ZM133.208 30.0513H131.323C131.328 29.7557 131.417 29.4982 131.59 29.2789C131.763 29.0595 131.995 28.9498 132.286 28.9498C132.577 28.9498 132.803 29.0572 132.965 29.2719C133.127 29.4867 133.208 29.7465 133.208 30.0513Z" fill="#A0A0A0"/>
<path d="M7.98038 4.4737L7.98038 32.0631C7.98025 32.3271 7.84427 32.5714 7.62287 32.7053C7.40148 32.8392 7.12768 32.8428 6.90303 32.7148L0.373627 28.9865C0.143165 28.8551 0.000135514 28.6056 0 28.3348L0 0.745403C0.000132063 0.481365 0.13611 0.237091 0.357504 0.103165C0.578899 -0.0307617 0.852694 -0.034359 1.07735 0.0936966L7.60675 3.82199C7.83721 3.95336 7.98024 4.20284 7.98038 4.4737Z" fill="#A0A0A0"/>
<path d="M18.6209 4.47492L18.6209 32.0643C18.6207 32.3283 18.4848 32.5726 18.2634 32.7065C18.042 32.8405 17.7682 32.8441 17.5435 32.716L11.0141 28.9877C10.7837 28.8563 10.6406 28.6069 10.6405 28.336L10.6405 0.746624C10.6406 0.482586 10.7766 0.238312 10.998 0.104385C11.2194 -0.029541 11.4932 -0.0331383 11.7179 0.0949173L18.2473 3.82321C18.4777 3.95458 18.6207 4.20406 18.6209 4.47492Z" fill="#A0A0A0"/>
<path d="M29.2596 4.47492L29.2596 32.0643C29.2594 32.3283 29.1234 32.5726 28.9021 32.7065C28.6807 32.8405 28.4069 32.8441 28.1822 32.716L21.6528 28.9877C21.4223 28.8563 21.2793 28.6069 21.2792 28.336L21.2792 0.746624C21.2793 0.482586 21.4153 0.238312 21.6367 0.104385C21.8581 -0.029541 22.1319 -0.0331383 22.3565 0.0949173L28.8859 3.82321C29.1164 3.95458 29.2594 4.20406 29.2596 4.47492Z" fill="#A0A0A0"/>
</svg>
