<svg width="136" height="34" viewBox="0 0 136 34" fill="none" xmlns="http://www.w3.org/2000/svg">
<path fill-rule="evenodd" clip-rule="evenodd" d="M0 15.5806V21.8017L17.707 7.16789V0.946777L0 15.5806Z" fill="#A0A0A0"/>
<path fill-rule="evenodd" clip-rule="evenodd" d="M0 27.7788V33.9997L17.707 19.3659V13.1448L0 27.7788Z" fill="#A0A0A0"/>
<path fill-rule="evenodd" clip-rule="evenodd" d="M7.87085 15.5806V21.8017L25.5779 7.16789V0.946777L7.87085 15.5806Z" fill="#A0A0A0"/>
<path fill-rule="evenodd" clip-rule="evenodd" d="M7.87085 27.7788V33.9997L25.5779 19.3659V13.1448L7.87085 27.7788Z" fill="#A0A0A0"/>
<path d="M46.197 22.1626C47.2537 22.1626 48.3297 22.0617 49.4248 21.86C50.52 21.6582 51.6488 21.3556 52.8112 20.9521V14.0642L53.2723 13.6607L54.9871 13.5166V12.0612H46.3699V13.5166L48.5602 13.6607L49.0213 14.0642V20.0875C48.6563 20.1164 48.3345 20.138 48.0559 20.1524C47.7773 20.1668 47.5611 20.174 47.4074 20.174C45.1114 20.174 43.3174 19.4319 42.0253 17.9477C40.7332 16.4634 40.0871 14.4052 40.0871 11.773C40.0871 9.20799 40.7188 7.19299 41.9821 5.72798C43.2453 4.26296 44.9817 3.53045 47.1913 3.53045C47.6332 3.53045 48.0559 3.56888 48.4594 3.64573C48.8628 3.72258 49.2567 3.84267 49.641 4.00598L50.0877 4.53915L50.6497 7.66612H52.8112V2.65144C51.716 2.32481 50.6473 2.07984 49.605 1.91653C48.5626 1.75322 47.5515 1.67156 46.5716 1.67156C43.3246 1.67156 40.7188 2.5914 38.7542 4.43108C36.7897 6.27075 35.8074 8.71805 35.8074 11.773C35.8074 14.8567 36.768 17.3593 38.6894 19.2806C40.6107 21.2019 43.1132 22.1626 46.197 22.1626ZM63.0961 22.0329C65.4017 22.0329 67.251 21.3604 68.6439 20.0155C70.0369 18.6706 70.7334 16.8933 70.7334 14.6838C70.7334 12.3494 70.0657 10.4977 68.7304 9.12874C67.3951 7.75979 65.5938 7.07531 63.3266 7.07531C61.021 7.07531 59.1718 7.76459 57.7788 9.14315C56.3858 10.5217 55.6893 12.3494 55.6893 14.6262C55.6893 16.8453 56.369 18.6345 57.7284 19.9939C59.0877 21.3532 60.8769 22.0329 63.0961 22.0329ZM63.1825 20.4766C62.1162 20.4766 61.2828 19.9531 60.6824 18.9059C60.082 17.8588 59.7818 16.3938 59.7818 14.5109C59.7818 12.6568 60.0844 11.2158 60.6896 10.1879C61.2948 9.15996 62.1354 8.646 63.2114 8.646C64.2969 8.646 65.1447 9.16957 65.7547 10.2167C66.3647 11.2638 66.6698 12.724 66.6698 14.5973C66.6698 16.4802 66.3671 17.9308 65.7619 18.9492C65.1567 19.9675 64.2969 20.4766 63.1825 20.4766ZM77.1132 21.8023C78.2756 21.8023 79.2675 21.7471 80.0888 21.6366C80.9102 21.5261 81.5899 21.3556 82.1278 21.1251C83.6457 20.443 84.8009 19.4799 85.5935 18.2359C86.386 16.9918 86.7823 15.5148 86.7823 13.8048C86.7823 11.8354 86.2395 10.2263 85.154 8.97743C84.0684 7.72857 82.6754 7.10413 80.9751 7.10413C80.3314 7.10413 79.6589 7.21221 78.9576 7.42836C78.2564 7.64451 77.5022 7.97834 76.6953 8.42985V0H75.2831L70.9025 1.38336V2.53616H73.0351V21.7447L76.3062 21.8023H77.1132ZM77.6319 20.2316C77.3822 20.2316 77.19 20.2292 77.0555 20.2244C76.921 20.2196 76.801 20.2124 76.6953 20.2028V9.64029C77.0795 9.56344 77.423 9.5058 77.7256 9.46737C78.0282 9.42895 78.3044 9.40973 78.5542 9.40973C79.9279 9.40973 80.9847 9.85404 81.7244 10.7427C82.4641 11.6313 82.8339 12.9066 82.8339 14.5685C82.8339 16.5091 82.4137 17.9381 81.5731 18.8555C80.7325 19.7729 79.4188 20.2316 77.6319 20.2316ZM95.1939 22.0329C97.4995 22.0329 99.3488 21.3604 100.742 20.0155C102.135 18.6706 102.831 16.8933 102.831 14.6838C102.831 12.3494 102.164 10.4977 100.828 9.12874C99.4929 7.75979 97.6916 7.07531 95.4244 7.07531C93.1188 7.07531 91.2696 7.76459 89.8766 9.14315C88.4836 10.5217 87.7871 12.3494 87.7871 14.6262C87.7871 16.8453 88.4668 18.6345 89.8262 19.9939C91.1855 21.3532 92.9747 22.0329 95.1939 22.0329ZM95.2803 20.4766C94.214 20.4766 93.3806 19.9531 92.7802 18.9059C92.1798 17.8588 91.8796 16.3938 91.8796 14.5109C91.8796 12.6568 92.1822 11.2158 92.7874 10.1879C93.3926 9.15996 94.2332 8.646 95.3092 8.646C96.3947 8.646 97.2425 9.16957 97.8525 10.2167C98.4626 11.2638 98.7676 12.724 98.7676 14.5973C98.7676 16.4802 98.465 17.9308 97.8597 18.9492C97.2545 19.9675 96.3947 20.4766 95.2803 20.4766ZM110.94 21.8023V20.4766L109.643 20.3613L109.24 19.9146V10.1735C109.816 10.0101 110.337 9.88526 110.803 9.7988C111.269 9.71234 111.68 9.66911 112.035 9.66911C112.958 9.66911 113.63 9.92609 114.053 10.44C114.475 10.954 114.687 11.7586 114.687 12.8537V19.9146L114.283 20.3613L113.015 20.4766V21.8023H120.235V20.4766L118.678 20.3613L118.289 19.9146V12.0035C118.289 10.3512 117.958 9.12153 117.295 8.31457C116.632 7.50761 115.628 7.10413 114.283 7.10413C113.678 7.10413 112.967 7.24823 112.151 7.53643C111.334 7.82463 110.364 8.28095 109.24 8.90538V7.16177H107.813L103.562 8.54513V9.72675H105.58V19.9146L105.162 20.3613L103.649 20.4766V21.8023H110.94ZM124.655 22.0617C125.404 22.0617 126.187 21.908 127.003 21.6006C127.82 21.2932 128.728 20.7984 129.727 20.1164L130.116 21.8023H135.376V20.5054L133.805 20.3613L133.416 19.9434V12.3061C133.416 10.3752 133.003 9.02066 132.177 8.24252C131.351 7.46438 129.924 7.07531 127.897 7.07531C126.091 7.07531 124.568 7.41635 123.329 8.09842C122.09 8.7805 121.47 9.58265 121.47 10.5049C121.47 10.8796 121.578 11.1533 121.794 11.3263C122.01 11.4992 122.354 11.5856 122.825 11.5856H125.548V8.81892C125.817 8.76128 126.067 8.71805 126.297 8.68923C126.528 8.66041 126.749 8.646 126.96 8.646C127.931 8.646 128.641 8.89097 129.093 9.38091C129.544 9.87085 129.77 10.649 129.77 11.7153V12.5943C125.899 13.4686 123.435 14.2803 122.378 15.0296C121.321 15.779 120.793 16.8453 120.793 18.2287C120.793 19.3526 121.153 20.2725 121.874 20.9882C122.594 21.7039 123.521 22.0617 124.655 22.0617ZM126.874 19.7993C126.201 19.7993 125.668 19.6 125.274 19.2013C124.88 18.8027 124.683 18.2623 124.683 17.5802C124.683 16.706 125.039 16.0143 125.75 15.5052C126.461 14.996 127.786 14.5253 129.727 14.093V18.9059C129.151 19.2037 128.625 19.4271 128.149 19.576C127.674 19.7249 127.248 19.7993 126.874 19.7993Z" fill="#A0A0A0"/>
<path d="M39.2937 32.4266V32.0877L38.7329 32.0474L38.5998 31.9304V30.0703L40.3186 27.3186L40.8229 27.2137V26.8828H39.1364V27.2137L39.6407 27.3024L39.7174 27.4194L38.3294 29.6265L37.0625 27.3549L37.1472 27.2621L37.6193 27.2137V26.8828H35.6987V27.2137L36.2031 27.2944L37.8493 30.1793V31.9304L37.7161 32.0474L37.1553 32.0877V32.4266H39.2937ZM41.8063 32.4993C42.3658 32.4993 42.8265 32.3063 43.1883 31.9203C43.5501 31.5343 43.7309 31.0387 43.7309 30.4334C43.7309 29.8282 43.5507 29.3326 43.1903 28.9466C42.8298 28.5606 42.3685 28.3676 41.8063 28.3676C41.2415 28.3676 40.7808 28.56 40.4244 28.9446C40.068 29.3293 39.8898 29.8255 39.8898 30.4334C39.8898 31.0414 40.0694 31.5376 40.4285 31.9223C40.7876 32.3069 41.2469 32.4993 41.8063 32.4993ZM41.8063 32.1442C41.4647 32.1442 41.189 31.9889 40.9792 31.6782C40.7694 31.3675 40.6645 30.9526 40.6645 30.4334C40.6645 29.9143 40.7687 29.4994 40.9772 29.1887C41.1857 28.878 41.462 28.7227 41.8063 28.7227C42.1506 28.7227 42.4284 28.8787 42.6395 29.1907C42.8507 29.5028 42.9563 29.917 42.9563 30.4334C42.9563 30.9553 42.8514 31.3709 42.6415 31.6802C42.4317 31.9895 42.1533 32.1442 41.8063 32.1442ZM45.6706 32.5073C45.867 32.5073 46.0748 32.463 46.294 32.3742C46.5132 32.2854 46.7519 32.1482 47.0102 31.9626V32.4266H48.2327V32.1281L47.8454 32.0877L47.6961 31.9546V28.3676H47.3814L46.4211 28.6743V28.9325H47.0102V31.7327C46.838 31.816 46.6733 31.8779 46.5159 31.9183C46.3585 31.9586 46.2032 31.9788 46.0499 31.9788C45.7755 31.9788 45.5738 31.9082 45.4447 31.7669C45.3155 31.6257 45.251 31.4045 45.251 31.1032V28.3676H44.9363L43.976 28.6743V28.9325H44.5651V31.2444C44.5651 31.6533 44.6599 31.966 44.8495 32.1825C45.0392 32.3991 45.3129 32.5073 45.6706 32.5073ZM50.4266 32.4266V32.1281L49.8496 32.0877L49.7084 31.9546V29.5942C49.8832 29.3871 50.0439 29.2344 50.1905 29.1363C50.3371 29.0381 50.4763 28.989 50.6081 28.989C50.6942 28.989 50.7729 29.0058 50.8442 29.0394C50.9154 29.073 50.978 29.1221 51.0318 29.1867H51.294V28.4766C51.208 28.4389 51.1246 28.4113 51.0439 28.3939C50.9632 28.3764 50.8811 28.3676 50.7978 28.3676C50.7413 28.3676 50.6989 28.369 50.6707 28.3717C50.6424 28.3744 50.6162 28.3797 50.592 28.3878C50.4306 28.5169 50.2766 28.648 50.13 28.7812C49.9834 28.9143 49.8429 29.0495 49.7084 29.1867V28.412H49.3937L48.4334 28.7066V28.9648H49.0144V31.9546L48.8732 32.0877L48.4334 32.1281V32.4266H50.4266ZM56.634 32.4266V32.0877L56.0772 32.0474L55.94 31.9304V27.2621H57.2029L57.3199 27.3872L57.4329 28.1538H57.8888V26.8828H53.2205V28.1538H53.6724L53.7894 27.3872L53.9064 27.2621H55.1693V31.9304L55.0281 32.0474L54.4753 32.0877V32.4266H56.634ZM59.3846 32.4266V32.1281L58.8077 32.0877L58.6664 31.9546V29.5942C58.8413 29.3871 59.002 29.2344 59.1486 29.1363C59.2952 29.0381 59.4344 28.989 59.5662 28.989C59.6523 28.989 59.7309 29.0058 59.8022 29.0394C59.8735 29.073 59.9361 29.1221 59.9898 29.1867H60.2521V28.4766C60.166 28.4389 60.0826 28.4113 60.002 28.3939C59.9213 28.3764 59.8392 28.3676 59.7558 28.3676C59.6993 28.3676 59.657 28.369 59.6287 28.3717C59.6005 28.3744 59.5743 28.3797 59.5501 28.3878C59.3887 28.5169 59.2347 28.648 59.0881 28.7812C58.9415 28.9143 58.8009 29.0495 58.6664 29.1867V28.412H58.3517L57.3914 28.7066V28.9648H57.9724V31.9546L57.8312 32.0877L57.3914 32.1281V32.4266H59.3846ZM61.9335 32.5073C62.1299 32.5073 62.3377 32.463 62.5569 32.3742C62.7761 32.2854 63.0149 32.1482 63.2731 31.9626V32.4266H64.4956V32.1281L64.1083 32.0877L63.959 31.9546V28.3676H63.6443L62.684 28.6743V28.9325H63.2731V31.7327C63.101 31.816 62.9362 31.8779 62.7788 31.9183C62.6215 31.9586 62.4661 31.9788 62.3128 31.9788C62.0385 31.9788 61.8367 31.9082 61.7076 31.7669C61.5785 31.6257 61.5139 31.4045 61.5139 31.1032V28.3676H61.1992L60.2389 28.6743V28.9325H60.828V31.2444C60.828 31.6533 60.9228 31.966 61.1125 32.1825C61.3021 32.3991 61.5758 32.5073 61.9335 32.5073ZM65.8704 32.4993C66.3546 32.4993 66.7332 32.3897 67.0062 32.1704C67.2793 31.9512 67.4158 31.6479 67.4158 31.2606C67.4158 31.1126 67.3889 30.9775 67.3351 30.8551C67.2813 30.7327 67.2033 30.6312 67.101 30.5505C66.9612 30.4348 66.7352 30.3057 66.4232 30.1631C66.3344 30.1228 66.2685 30.0918 66.2255 30.0703C65.9511 29.9385 65.7655 29.8188 65.6687 29.7112C65.5719 29.6036 65.5234 29.4732 65.5234 29.3198C65.5234 29.1315 65.584 28.985 65.705 28.88C65.826 28.7751 65.9942 28.7227 66.2094 28.7227C66.3089 28.7227 66.4084 28.7375 66.5079 28.7671C66.6075 28.7967 66.7124 28.841 66.8226 28.9002L66.8872 29.4853H67.2947V28.5492C67.1548 28.49 67.0049 28.445 66.8448 28.414C66.6848 28.3831 66.512 28.3676 66.3264 28.3676C65.861 28.3676 65.5006 28.4685 65.245 28.6702C64.9895 28.872 64.8617 29.1571 64.8617 29.5256C64.8617 29.7677 64.9364 29.9708 65.0857 30.1349C65.235 30.299 65.5167 30.4738 65.931 30.6594C66.2968 30.8262 66.5281 30.964 66.6249 31.073C66.7218 31.1819 66.7702 31.3198 66.7702 31.4865C66.7702 31.6856 66.6996 31.8463 66.5584 31.9687C66.4171 32.0911 66.2295 32.1523 65.9955 32.1523C65.8772 32.1523 65.7595 32.1361 65.6425 32.1039C65.5255 32.0716 65.4091 32.0218 65.2935 31.9546L65.1926 31.2525H64.7972V32.3258C64.9505 32.3849 65.1179 32.4287 65.2995 32.4569C65.4811 32.4851 65.6714 32.4993 65.8704 32.4993ZM69.0649 32.4508C69.2344 32.4508 69.4106 32.4354 69.5935 32.4044C69.7764 32.3735 69.962 32.3285 70.1503 32.2693V31.9626C70.0481 31.9868 69.9492 32.0043 69.8537 32.0151C69.7582 32.0258 69.6661 32.0312 69.5773 32.0312C69.3191 32.0312 69.1402 31.97 69.0407 31.8476C68.9412 31.7253 68.8914 31.4852 68.8914 31.1274V28.9486H70.1503V28.5613H68.8914V27.6817H68.5848L68.2297 28.4524L67.685 28.6904V28.9486H68.2055V31.6156C68.2055 31.933 68.2694 32.1516 68.3972 32.2713C68.5249 32.391 68.7475 32.4508 69.0649 32.4508ZM72.1101 32.4993C72.3764 32.4993 72.6414 32.4576 72.905 32.3742C73.1686 32.2908 73.4228 32.1684 73.6676 32.007V31.5511C73.4201 31.7152 73.1908 31.8362 72.9796 31.9142C72.7685 31.9922 72.5647 32.0312 72.3683 32.0312C71.9433 32.0312 71.6058 31.8799 71.3556 31.5773C71.1055 31.2747 70.9804 30.8638 70.9804 30.3447V30.2519H73.6554C73.6608 30.2196 73.6642 30.186 73.6655 30.151C73.6669 30.116 73.6676 30.0649 73.6676 29.9977C73.6676 29.4947 73.5337 29.0973 73.2661 28.8054C72.9985 28.5136 72.636 28.3676 72.1787 28.3676C71.6192 28.3676 71.1613 28.5633 70.8049 28.9547C70.4485 29.3461 70.2703 29.8511 70.2703 30.4698C70.2703 31.0723 70.4404 31.5612 70.7807 31.9364C71.1209 32.3116 71.5641 32.4993 72.1101 32.4993ZM72.9292 29.9049H71.0207C71.0449 29.5687 71.1572 29.2909 71.3576 29.0717C71.558 28.8525 71.7954 28.7429 72.0698 28.7429C72.3495 28.7429 72.5627 28.8316 72.7093 29.0092C72.8559 29.1867 72.9292 29.4422 72.9292 29.7758V29.9049ZM75.6395 32.4993C75.8628 32.4993 76.0766 32.4589 76.281 32.3782C76.4855 32.2975 76.6953 32.1711 76.9105 31.9989V32.4266H78.133V32.1281L77.7376 32.0877L77.5964 31.9546V26.3462H77.2857L76.277 26.6407V26.899H76.9105V28.4524C76.7787 28.4228 76.6509 28.3999 76.5272 28.3838C76.4034 28.3676 76.2864 28.3596 76.1761 28.3596C75.544 28.3596 75.0309 28.5633 74.6368 28.9708C74.2428 29.3783 74.0457 29.9103 74.0457 30.5666C74.0457 31.1315 74.1957 31.5948 74.4956 31.9566C74.7956 32.3184 75.1768 32.4993 75.6395 32.4993ZM76.0107 31.9788C75.6341 31.9788 75.3335 31.8389 75.1089 31.5592C74.8843 31.2794 74.772 30.9015 74.772 30.4254C74.772 29.9143 74.9018 29.5028 75.1614 29.1907C75.4209 28.8787 75.7619 28.7227 76.1842 28.7227C76.2783 28.7227 76.3853 28.7341 76.505 28.757C76.6247 28.7798 76.7598 28.8128 76.9105 28.8558V31.6923C76.7544 31.7891 76.6018 31.8611 76.4525 31.9082C76.3032 31.9552 76.156 31.9788 76.0107 31.9788ZM83.3519 32.5275C83.6262 32.5275 83.9046 32.5026 84.1871 32.4529C84.4695 32.4031 84.7466 32.3311 85.0183 32.237V30.9297H84.5744L84.3727 31.8497L84.2436 31.9788C84.1225 32.0164 84.0022 32.044 83.8825 32.0615C83.7628 32.079 83.6437 32.0877 83.5254 32.0877C82.8502 32.0877 82.3217 31.8665 81.9397 31.424C81.5577 30.9815 81.3668 30.3716 81.3668 29.5942C81.3668 28.8626 81.5497 28.2842 81.9155 27.8592C82.2813 27.4342 82.7762 27.2217 83.4003 27.2217C83.5563 27.2217 83.7096 27.2392 83.8603 27.2742C84.0109 27.3092 84.1656 27.363 84.3243 27.4356L84.4332 27.5849L84.5583 28.3353H85.0183V27.0644C84.7224 26.9702 84.4379 26.8996 84.1649 26.8526C83.8919 26.8055 83.6316 26.7819 83.3842 26.7819C82.5234 26.7819 81.8301 27.0449 81.3042 27.5708C80.7784 28.0966 80.5154 28.7899 80.5154 29.6507C80.5154 30.1887 80.6425 30.6843 80.8967 31.1375C81.1509 31.5908 81.4999 31.9438 81.9437 32.1967C82.1374 32.3042 82.3526 32.3863 82.5893 32.4428C82.826 32.4993 83.0802 32.5275 83.3519 32.5275ZM87.0144 32.5073C87.2108 32.5073 87.4186 32.463 87.6378 32.3742C87.857 32.2854 88.0957 32.1482 88.354 31.9626V32.4266H89.5765V32.1281L89.1892 32.0877L89.0399 31.9546V28.3676H88.7252L87.7649 28.6743V28.9325H88.354V31.7327C88.1818 31.816 88.0171 31.8779 87.8597 31.9183C87.7023 31.9586 87.547 31.9788 87.3937 31.9788C87.1193 31.9788 86.9176 31.9082 86.7885 31.7669C86.6593 31.6257 86.5948 31.4045 86.5948 31.1032V28.3676H86.2801L85.3198 28.6743V28.9325H85.9089V31.2444C85.9089 31.6533 86.0037 31.966 86.1933 32.1825C86.383 32.3991 86.6567 32.5073 87.0144 32.5073ZM91.7704 32.4266V32.1281L91.1934 32.0877L91.0522 31.9546V29.5942C91.227 29.3871 91.3877 29.2344 91.5343 29.1363C91.6809 29.0381 91.8201 28.989 91.9519 28.989C92.038 28.989 92.1167 29.0058 92.188 29.0394C92.2592 29.073 92.3218 29.1221 92.3756 29.1867H92.6378V28.4766C92.5518 28.4389 92.4684 28.4113 92.3877 28.3939C92.307 28.3764 92.2249 28.3676 92.1416 28.3676C92.0851 28.3676 92.0427 28.369 92.0145 28.3717C91.9862 28.3744 91.96 28.3797 91.9358 28.3878C91.7744 28.5169 91.6204 28.648 91.4738 28.7812C91.3272 28.9143 91.1867 29.0495 91.0522 29.1867V28.412H90.7375L89.7772 28.7066V28.9648H90.3582V31.9546L90.217 32.0877L89.7772 32.1281V32.4266H91.7704ZM94.6501 32.4266V32.1281L94.0732 32.0877L93.9319 31.9546V29.5942C94.1068 29.3871 94.2675 29.2344 94.4141 29.1363C94.5607 29.0381 94.6999 28.989 94.8317 28.989C94.9178 28.989 94.9965 29.0058 95.0677 29.0394C95.139 29.073 95.2016 29.1221 95.2554 29.1867H95.5176V28.4766C95.4315 28.4389 95.3482 28.4113 95.2675 28.3939C95.1868 28.3764 95.1047 28.3676 95.0213 28.3676C94.9649 28.3676 94.9225 28.369 94.8942 28.3717C94.866 28.3744 94.8398 28.3797 94.8156 28.3878C94.6542 28.5169 94.5002 28.648 94.3536 28.7812C94.207 28.9143 94.0664 29.0495 93.9319 29.1867V28.412H93.6172L92.6569 28.7066V28.9648H93.238V31.9546L93.0967 32.0877L92.6569 32.1281V32.4266H94.6501ZM96.5616 27.5284C96.696 27.5284 96.8097 27.4827 96.9025 27.3912C96.9953 27.2997 97.0417 27.1881 97.0417 27.0563C97.0417 26.9245 96.9953 26.8115 96.9025 26.7174C96.8097 26.6232 96.696 26.5762 96.5616 26.5762C96.4298 26.5762 96.3175 26.6226 96.2247 26.7154C96.1319 26.8082 96.0854 26.9218 96.0854 27.0563C96.0854 27.1881 96.1319 27.2997 96.2247 27.3912C96.3175 27.4827 96.4298 27.5284 96.5616 27.5284ZM97.4371 32.4266V32.1281L96.9933 32.0877L96.8521 31.9546V28.412H96.5293L95.5811 28.7066V28.9648H96.1581V31.9546L96.0169 32.0877L95.5811 32.1281V32.4266H97.4371ZM99.4736 32.4993C99.7399 32.4993 100.005 32.4576 100.268 32.3742C100.532 32.2908 100.786 32.1684 101.031 32.007V31.5511C100.784 31.7152 100.554 31.8362 100.343 31.9142C100.132 31.9922 99.9282 32.0312 99.7318 32.0312C99.3068 32.0312 98.9693 31.8799 98.7191 31.5773C98.4689 31.2747 98.3439 30.8638 98.3439 30.3447V30.2519H101.019C101.024 30.2196 101.028 30.186 101.029 30.151C101.03 30.116 101.031 30.0649 101.031 29.9977C101.031 29.4947 100.897 29.0973 100.63 28.8054C100.362 28.5136 99.9995 28.3676 99.5422 28.3676C98.9827 28.3676 98.5248 28.5633 98.1683 28.9547C97.8119 29.3461 97.6337 29.8511 97.6337 30.4698C97.6337 31.0723 97.8039 31.5612 98.1441 31.9364C98.4844 32.3116 98.9276 32.4993 99.4736 32.4993ZM100.293 29.9049H98.3842C98.4084 29.5687 98.5207 29.2909 98.7211 29.0717C98.9215 28.8525 99.1589 28.7429 99.4333 28.7429C99.713 28.7429 99.9262 28.8316 100.073 29.0092C100.219 29.1867 100.293 29.4422 100.293 29.7758V29.9049ZM103.35 32.4266V32.1281L102.773 32.0877L102.632 31.9546V29.5942C102.807 29.3871 102.967 29.2344 103.114 29.1363C103.261 29.0381 103.4 28.989 103.532 28.989C103.618 28.989 103.696 29.0058 103.768 29.0394C103.839 29.073 103.901 29.1221 103.955 29.1867H104.217V28.4766C104.131 28.4389 104.048 28.4113 103.967 28.3939C103.887 28.3764 103.805 28.3676 103.721 28.3676C103.665 28.3676 103.622 28.369 103.594 28.3717C103.566 28.3744 103.54 28.3797 103.515 28.3878C103.354 28.5169 103.2 28.648 103.053 28.7812C102.907 28.9143 102.766 29.0495 102.632 29.1867V28.412H102.317L101.357 28.7066V28.9648H101.938V31.9546L101.797 32.0877L101.357 32.1281V32.4266H103.35Z" fill="#A0A0A0"/>
</svg>
